<svg id="e1rh41gmffsp1" xmlns="http://www.w3.org/2000/svg" xmlns:xlink="http://www.w3.org/1999/xlink" viewBox="0 0 650 650" shape-rendering="geometricPrecision" text-rendering="geometricPrecision"><g id="e1rh41gmffsp2" transform="matrix(0.99862953475457 0.05233595624294 -0.05233595624294 0.99862953475457 11.76288965165378 -9.29835224218422)"><path id="e1rh41gmffsp3" d="M201.820000,118.280000C201.820000,118.280000,128.450000,111.710000,136.150000,198.270000L135.580000,261.730000L270.930000,261.730000L270.930000,198.270000C270.940000,198.270000,283.850000,119.250000,201.820000,118.280000Z" fill="rgb(14,19,41)" stroke="none" stroke-width="1"/></g><g id="e1rh41gmffsp4"><g id="e1rh41gmffsp5"><path id="e1rh41gmffsp6" d="M220.520000,237.740000C220.830000,237.740000,221.140000,237.780000,221.450000,237.810000L218.770000,217.780000C218.350000,214.660000,216.210000,212.380000,213.710000,212.380000L196.820000,212.380000C194.250000,212.380000,192.080000,214.770000,191.740000,217.980000L189.610000,237.640000C189.690000,237.640000,189.760000,237.630000,189.840000,237.630000L220.520000,237.740000Z" fill="rgb(167,122,100)" stroke="none" stroke-width="1"/><path id="e1rh41gmffsp7" d="M258.620000,167.530000C257.430000,167.530000,256.320000,167.900000,255.340000,168.560000C250.440000,149.450000,229.020000,135.060000,203.340000,135.060000C177.390000,135.060000,155.800000,149.760000,151.200000,169.170000C150.180000,168.450000,149.010000,168.030000,147.760000,168.030000C143.880000,168.030000,140.730000,172,140.730000,176.900000C140.730000,181.800000,143.880000,185.770000,147.760000,185.770000C149.010000,185.770000,150.180000,185.350000,151.200000,184.630000C155.800000,204.040000,177.390000,218.740000,203.340000,218.740000C229.410000,218.740000,251.080000,203.910000,255.540000,184.370000C256.470000,184.950000,257.520000,185.280000,258.630000,185.280000C262.510000,185.280000,265.660000,181.310000,265.660000,176.410000C265.660000,171.510000,262.500000,167.530000,258.620000,167.530000Z" fill="rgb(196,146,109)" stroke="none" stroke-width="1"/><path id="e1rh41gmffsp8" d="M197.050000,163.750000L194.070000,189.110000C193.790000,191.510000,195.670000,193.630000,198.090000,193.630000L209.180000,193.630000C211.700000,193.630000,213.610000,191.340000,213.160000,188.860000L208.560000,163.500000C208.210000,161.580000,206.530000,160.180000,204.580000,160.180000L201.080000,160.180000C199.010000,160.170000,197.290000,161.710000,197.050000,163.750000Z" fill="rgb(167,122,100)" stroke="none" stroke-width="1"/><path id="e1rh41gmffsp9" d="M212.590000,201.400000C208.030000,193.910000,203,202.200000,203,202.200000C198.010000,193.850000,193.190000,201.720000,193.190000,201.720000L191.900000,203.920000L214.190000,203.920000L212.590000,201.400000Z" fill="rgb(170,85,116)" stroke="none" stroke-width="1"/><path id="e1rh41gmffsp10" d="M188.490000,203.590000L217.600000,203.590000C217.600000,203.590000,216.790000,210.720000,203.040000,210.720000C188.490000,210.720000,188.490000,203.590000,188.490000,203.590000Z" fill="rgb(123,58,83)" stroke="none" stroke-width="1"/><path id="e1rh41gmffsp11" d="M221.500000,187.940000C222.070000,192.180000,228.160000,194.860000,235.100000,193.930000C242.040000,193,246.130000,188.760000,246.640000,184.580000C248.200000,171.960000,240.510000,179.560000,233.390000,181.190000C226.550000,182.750000,220.930000,183.700000,221.500000,187.940000Z" fill="rgb(171,118,132)" stroke="none" stroke-width="1"/><path id="e1rh41gmffsp12" d="M184.600000,185.940000C184.030000,190.180000,177.940000,192.860000,171,191.930000C164.060000,191,159.970000,186.760000,159.460000,182.580000C157.900000,169.960000,165.590000,177.560000,172.710000,179.190000C179.540000,180.750000,185.160000,181.700000,184.600000,185.940000Z" fill="rgb(171,118,132)" stroke="none" stroke-width="1"/></g><g id="e1rh41gmffsp13"><circle id="e1rh41gmffsp14" r="7.650000" transform="matrix(1 0 0 1 175.50999999999999 177.43000000000001)" fill="rgb(41,53,122)" stroke="none" stroke-width="1"/><circle id="e1rh41gmffsp15" r="7.650000" transform="matrix(1 0 0 1 229.59999999999999 177.43000000000001)" fill="rgb(41,53,122)" stroke="none" stroke-width="1"/><path id="e1rh41gmffsp16" d="M240.020000,164.910000C237.210000,164.730000,230.380000,163.130000,221.530000,165.420000C220.070000,165.800000,218.510000,165.440000,217.910000,164.050000C217.300000,162.650000,217.440000,160.890000,220.680000,159.620000C226.900000,157.180000,244.600000,160.260000,243.620000,163.220000L243.620000,163.220000C243.120000,164.720000,241.580000,165.010000,240.020000,164.910000Z" fill="rgb(14,19,41)" stroke="none" stroke-width="1"/><path id="e1rh41gmffsp17" d="M165.950000,164.860000C169.510000,163.450000,176.360000,161.810000,184.440000,165.370000C185.820000,165.980000,187.460000,165.390000,188.060000,164C188.670000,162.600000,188.530000,160.840000,185.290000,159.570000C179.070000,157.130000,161.370000,160.210000,162.350000,163.170000L162.350000,163.170000C162.850000,164.670000,164.490000,165.440000,165.950000,164.860000Z" fill="rgb(14,19,41)" stroke="none" stroke-width="1"/></g></g><g id="e1rh41gmffsp18"><path id="e1rh41gmffsp19" d="M296.490000,292.700000L256.980000,251.300000C252.010000,246.090000,245.650000,242.850000,242.960000,244.210000C232.780000,249.340000,228.260000,257.840000,226.320000,263.360000C225.330000,266.160000,228.870000,271.940000,234.290000,276.400000L277.920000,312.340000C282.930000,316.470000,287.960000,318.140000,289.690000,316.250000L301.110000,303.810000C302.800000,301.970000,300.850000,297.270000,296.490000,292.700000Z" fill="rgb(196,146,109)" stroke="none" stroke-width="1"/><g id="e1rh41gmffsp20"><path id="e1rh41gmffsp21" d="M288.410000,305.480000L292.840000,301.700000C296.420000,298.640000,301.850000,299.070000,304.910000,302.650000L315.160000,314.650000C318.220000,318.230000,317.790000,323.660000,314.210000,326.720000L309.780000,330.500000C306.200000,333.560000,300.770000,333.130000,297.710000,329.550000L291.840000,322.680000L290.620000,330.570000C290.290000,332.730000,288.240000,334.220000,286.080000,333.890000C283.920000,333.560000,282.430000,331.510000,282.760000,329.350000L284.940000,315.310000C285.030000,314.710000,285.270000,314.170000,285.590000,313.700000C285,310.740000,285.970000,307.560000,288.410000,305.480000Z" fill="rgb(196,146,109)" stroke="none" stroke-width="1"/></g></g><g id="e1rh41gmffsp22" transform="matrix(0.99619469809175 -0.08715574274766 0.08715574274766 0.99619469809175 -23.97678516434476 13.90101111476781)"><path id="e1rh41gmffsp23" d="M115.150000,297.170000L152.600000,253.890000C157.310000,248.440000,163.500000,244.900000,166.260000,246.130000C176.670000,250.760000,181.600000,259.030000,183.810000,264.450000C184.930000,267.200000,181.680000,273.150000,176.490000,277.870000L132.390000,312.020000C127.580000,316.390000,122.640000,318.300000,120.820000,316.500000L111.070000,308.500000C109.300000,306.730000,111.020000,301.940000,115.150000,297.170000Z" fill="rgb(196,146,109)" stroke="none" stroke-width="1"/><g id="e1rh41gmffsp24"><path id="e1rh41gmffsp25" d="M124.650000,307.980000L119.870000,304.650000C116.010000,301.960000,110.640000,302.910000,107.950000,306.780000L98.930000,319.720000C96.240000,323.580000,97.190000,328.950000,101.060000,331.640000L105.840000,334.970000C109.700000,337.660000,115.070000,336.710000,117.760000,332.840000L122.930000,325.430000L124.920000,333.170000C125.470000,335.290000,127.640000,336.570000,129.760000,336.030000C131.880000,335.480000,133.160000,333.310000,132.620000,331.190000L129.080000,317.430000C128.930000,316.840000,128.640000,316.330000,128.270000,315.890000C128.550000,312.880000,127.280000,309.810000,124.650000,307.980000Z" fill="rgb(196,146,109)" stroke="none" stroke-width="1"/></g></g><g id="e1rh41gmffsp26"><g id="e1rh41gmffsp27"><path id="e1rh41gmffsp28" d="M278.990000,394.650000L251.720000,320.150000C251.270000,318.840000,249.840000,315.200000,249.960000,313.820000L250.560000,251.650000C251.040000,246.340000,247.210000,241.570000,241.820000,240.780000L222.020000,237.850000C221.830000,237.820000,221.640000,237.820000,221.440000,237.810000C221.130000,237.780000,220.820000,237.740000,220.510000,237.740000L189.820000,237.630000C189.740000,237.630000,189.670000,237.640000,189.590000,237.640000C189.080000,237.650000,188.570000,237.690000,188.070000,237.770000L171.560000,240.490000C165.860000,241.430000,162.060000,246.770000,163.130000,252.330000L169.800000,313.830000C170.080000,315.280000,168.940000,319.380000,168.570000,320.810000L148.310000,395.340000C146.640000,401.730000,151.570000,407.940000,158.310000,407.940000L269.200000,407.940000C276.240000,407.950000,281.210000,401.200000,278.990000,394.650000Z" fill="rgb(196,146,109)" stroke="none" stroke-width="1"/></g></g><g id="e1rh41gmffsp29"><path id="e1rh41gmffsp30" d="M282.360000,497.210000C282.270000,497.160000,282.180000,497.120000,282.090000,497.070000C274.580000,493.430000,261.540000,484.910000,256.990000,481.890000C256.530000,481.590000,256.030000,481.360000,255.520000,481.180000L259.300000,424.100000C259.780000,416.910000,257.860000,410.050000,255.040000,408.980000C244.380000,404.950000,235.060000,407.370000,229.680000,409.670000C226.950000,410.840000,225.080000,417.350000,225.460000,424.360000L228.490000,480.800000C228.520000,481.390000,228.570000,481.970000,228.640000,482.530000C227.780000,483.210000,227.080000,484.110000,226.670000,485.170000C223.680000,492.800000,218.590000,508.780000,228.350000,509.120000C241.170000,509.570000,274.840000,509.120000,274.840000,509.120000L279.310000,509.210000C286.030000,509.360000,288.360000,500.270000,282.360000,497.210000Z" fill="rgb(196,146,109)" stroke="none" stroke-width="1"/><g id="e1rh41gmffsp31"><path id="e1rh41gmffsp32" d="M221.570000,471.550000C221.680000,471.270000,221.860000,471.020000,222.090000,470.810000C223.250000,469.730000,227.190000,466.750000,231.600000,471.160000C235.250000,474.800000,231.380000,481.260000,228.650000,484.880000C227.640000,486.220000,225.590000,486.030000,224.840000,484.540000C223,480.860000,220.380000,474.750000,221.570000,471.550000Z" fill="rgb(41,99,87)" stroke="none" stroke-width="1"/><path id="e1rh41gmffsp33" d="M228.440000,469.290000C228.550000,469.010000,228.730000,468.760000,228.960000,468.550000C230.120000,467.470000,234.060000,464.490000,238.470000,468.900000C242.120000,472.540000,238.250000,478.990000,235.520000,482.620000C234.510000,483.960000,232.460000,483.770000,231.710000,482.280000C229.860000,478.610000,227.250000,472.490000,228.440000,469.290000Z" fill="rgb(41,99,87)" stroke="none" stroke-width="1"/><path id="e1rh41gmffsp34" d="M236.090000,469.290000C236.200000,469.010000,236.380000,468.760000,236.610000,468.550000C237.770000,467.470000,241.710000,464.490000,246.120000,468.900000C249.770000,472.540000,245.900000,478.990000,243.170000,482.620000C242.160000,483.960000,240.110000,483.770000,239.360000,482.280000C237.510000,478.610000,234.900000,472.490000,236.090000,469.290000Z" fill="rgb(41,99,87)" stroke="none" stroke-width="1"/><path id="e1rh41gmffsp35" d="M244.290000,469.290000C244.400000,469.010000,244.580000,468.760000,244.810000,468.550000C245.970000,467.470000,249.910000,464.490000,254.320000,468.900000C257.970000,472.540000,254.100000,478.990000,251.370000,482.620000C250.360000,483.960000,248.310000,483.770000,247.560000,482.280000C245.710000,478.610000,243.100000,472.490000,244.290000,469.290000Z" fill="rgb(41,99,87)" stroke="none" stroke-width="1"/><path id="e1rh41gmffsp36" d="M251.300000,470.270000C251.410000,469.990000,251.590000,469.740000,251.820000,469.530000C252.980000,468.450000,256.920000,465.470000,261.330000,469.880000C264.980000,473.520000,261.110000,479.970000,258.380000,483.600000C257.370000,484.940000,255.320000,484.750000,254.570000,483.260000C252.730000,479.590000,250.110000,473.470000,251.300000,470.270000Z" fill="rgb(41,99,87)" stroke="none" stroke-width="1"/><path id="e1rh41gmffsp37" d="M256.110000,471.550000C256.220000,471.270000,256.400000,471.020000,256.630000,470.810000C257.790000,469.730000,261.730000,466.750000,266.140000,471.160000C269.790000,474.800000,265.920000,481.260000,263.190000,484.880000C262.180000,486.220000,260.130000,486.030000,259.380000,484.540000C257.530000,480.860000,254.920000,474.750000,256.110000,471.550000Z" fill="rgb(41,99,87)" stroke="none" stroke-width="1"/></g></g><g id="e1rh41gmffsp38"><path id="e1rh41gmffsp39" d="M201.150000,485.200000C200.760000,484.200000,200.120000,483.350000,199.340000,482.690000C199.390000,482.210000,199.440000,481.730000,199.470000,481.230000L203.250000,424.120000C203.730000,416.930000,201.810000,410.070000,198.990000,409C188.330000,404.970000,179.010000,407.390000,173.630000,409.690000C170.900000,410.860000,169.030000,417.370000,169.410000,424.380000L172.440000,480.820000C172.450000,480.930000,172.460000,481.030000,172.460000,481.130000C171.880000,481.310000,171.320000,481.560000,170.810000,481.900000C166.260000,484.920000,153.220000,493.430000,145.710000,497.080000C145.620000,497.120000,145.530000,497.170000,145.440000,497.220000C139.440000,500.280000,141.770000,509.370000,148.500000,509.240000L152.970000,509.150000C152.970000,509.150000,186.640000,509.600000,199.460000,509.150000C209.230000,508.800000,204.140000,492.830000,201.150000,485.200000Z" fill="rgb(196,146,109)" stroke="none" stroke-width="1"/></g><g id="e1rh41gmffsp40"><g id="e1rh41gmffsp41"><g id="e1rh41gmffsp42"><path id="e1rh41gmffsp43" d="M146.790000,381.010000C147.010000,380.380000,147.360000,379.820000,147.790000,379.320000C150.710000,375.840000,162.670000,363.750000,176.130000,380.180000C187.050000,393.510000,175.080000,417.270000,167.040000,430.160000C164.520000,434.210000,158.490000,433.730000,156.650000,429.330000C151.130000,416.070000,142.730000,392.660000,146.790000,381.010000Z" fill="rgb(173,210,94)" stroke="none" stroke-width="1"/><path id="e1rh41gmffsp44" d="M167,372.900000C167.220000,372.270000,167.570000,371.710000,168,371.210000C170.920000,367.730000,182.880000,355.640000,196.340000,372.070000C207.260000,385.400000,195.290000,409.160000,187.250000,422.050000C184.730000,426.100000,178.700000,425.620000,176.860000,421.220000C171.340000,407.960000,162.940000,384.550000,167,372.900000Z" fill="rgb(173,210,94)" stroke="none" stroke-width="1"/><path id="e1rh41gmffsp45" d="M189.520000,372.900000C189.740000,372.270000,190.090000,371.710000,190.520000,371.210000C193.440000,367.730000,205.400000,355.640000,218.860000,372.070000C229.780000,385.400000,217.810000,409.160000,209.770000,422.050000C207.250000,426.100000,201.220000,425.620000,199.380000,421.220000C193.860000,407.960000,185.470000,384.550000,189.520000,372.900000Z" fill="rgb(173,210,94)" stroke="none" stroke-width="1"/><path id="e1rh41gmffsp46" d="M213.670000,372.900000C213.890000,372.270000,214.240000,371.710000,214.670000,371.210000C217.590000,367.730000,229.550000,355.640000,243.010000,372.070000C253.930000,385.400000,241.960000,409.160000,233.920000,422.050000C231.400000,426.100000,225.370000,425.620000,223.530000,421.220000C218.010000,407.960000,209.620000,384.550000,213.670000,372.900000Z" fill="rgb(173,210,94)" stroke="none" stroke-width="1"/><path id="e1rh41gmffsp47" d="M234.310000,376.420000C234.530000,375.790000,234.880000,375.230000,235.310000,374.730000C238.230000,371.250000,250.190000,359.160000,263.650000,375.590000C274.570000,388.920000,262.600000,412.680000,254.560000,425.570000C252.040000,429.620000,246.010000,429.140000,244.170000,424.740000C238.650000,411.480000,230.260000,388.070000,234.310000,376.420000Z" fill="rgb(173,210,94)" stroke="none" stroke-width="1"/><path id="e1rh41gmffsp48" d="M248.460000,381.010000C248.680000,380.380000,249.030000,379.820000,249.460000,379.320000C252.380000,375.840000,264.340000,363.750000,277.800000,380.180000C288.720000,393.510000,276.750000,417.270000,268.710000,430.160000C266.190000,434.210000,260.160000,433.730000,258.320000,429.330000C252.800000,416.070000,244.410000,392.660000,248.460000,381.010000Z" fill="rgb(173,210,94)" stroke="none" stroke-width="1"/></g><g id="e1rh41gmffsp49"><path id="e1rh41gmffsp50" d="M150.300000,368.640000C150.490000,368.150000,150.780000,367.700000,151.140000,367.310000C153.750000,364.400000,165.300000,353.280000,178.320000,367.960000C189.230000,380.260000,176.220000,402.620000,168.610000,413.560000C166.510000,416.580000,161.930000,416.150000,160.390000,412.810000C155.140000,401.430000,146.210000,379.350000,150.300000,368.640000Z" fill="rgb(189,48,77)" stroke="none" stroke-width="1"/><path id="e1rh41gmffsp51" d="M169.610000,361.490000C169.800000,361,170.090000,360.550000,170.450000,360.160000C173.060000,357.250000,184.610000,346.130000,197.630000,360.810000C208.540000,373.110000,195.530000,395.470000,187.920000,406.410000C185.820000,409.430000,181.240000,409,179.700000,405.660000C174.460000,394.280000,165.520000,372.200000,169.610000,361.490000Z" fill="rgb(189,48,77)" stroke="none" stroke-width="1"/><path id="e1rh41gmffsp52" d="M191.130000,361.490000C191.320000,361,191.610000,360.550000,191.970000,360.160000C194.580000,357.250000,206.130000,346.130000,219.150000,360.810000C230.060000,373.110000,217.050000,395.470000,209.440000,406.410000C207.340000,409.430000,202.760000,409,201.220000,405.660000C195.980000,394.280000,187.040000,372.200000,191.130000,361.490000Z" fill="rgb(189,48,77)" stroke="none" stroke-width="1"/><path id="e1rh41gmffsp53" d="M214.200000,361.490000C214.390000,361,214.680000,360.550000,215.040000,360.160000C217.650000,357.250000,229.200000,346.130000,242.220000,360.810000C253.130000,373.110000,240.120000,395.470000,232.510000,406.410000C230.410000,409.430000,225.830000,409,224.290000,405.660000C219.050000,394.280000,210.120000,372.200000,214.200000,361.490000Z" fill="rgb(189,48,77)" stroke="none" stroke-width="1"/><path id="e1rh41gmffsp54" d="M233.930000,364.590000C234.120000,364.100000,234.410000,363.650000,234.770000,363.260000C237.380000,360.350000,248.930000,349.230000,261.950000,363.910000C272.860000,376.210000,259.850000,398.570000,252.240000,409.510000C250.140000,412.530000,245.560000,412.100000,244.020000,408.760000C238.770000,397.390000,229.840000,375.300000,233.930000,364.590000Z" fill="rgb(189,48,77)" stroke="none" stroke-width="1"/><path id="e1rh41gmffsp55" d="M247.450000,368.640000C247.640000,368.150000,247.930000,367.700000,248.290000,367.310000C250.900000,364.400000,262.450000,353.280000,275.470000,367.960000C286.380000,380.260000,273.370000,402.620000,265.760000,413.560000C263.660000,416.580000,259.080000,416.150000,257.540000,412.810000C252.300000,401.430000,243.360000,379.350000,247.450000,368.640000Z" fill="rgb(189,48,77)" stroke="none" stroke-width="1"/></g><g id="e1rh41gmffsp56"><path id="e1rh41gmffsp57" d="M153.970000,352.670000C154.130000,352.250000,154.380000,351.870000,154.680000,351.530000C157.020000,348.900000,167.790000,338.380000,179.960000,352.080000C190.260000,363.690000,177.610000,384.950000,170.600000,394.910000C168.800000,397.470000,164.910000,397.140000,163.590000,394.300000C158.750000,383.920000,150.050000,362.780000,153.970000,352.670000Z" fill="rgb(70,163,140)" stroke="none" stroke-width="1"/><path id="e1rh41gmffsp58" d="M171.900000,346.030000C172.060000,345.610000,172.310000,345.230000,172.610000,344.890000C174.950000,342.260000,185.720000,331.740000,197.890000,345.440000C208.190000,357.050000,195.540000,378.310000,188.530000,388.270000C186.730000,390.830000,182.840000,390.500000,181.520000,387.660000C176.680000,377.280000,167.980000,356.140000,171.900000,346.030000Z" fill="rgb(70,163,140)" stroke="none" stroke-width="1"/><path id="e1rh41gmffsp59" d="M191.880000,346.030000C192.040000,345.610000,192.290000,345.230000,192.590000,344.890000C194.930000,342.260000,205.700000,331.740000,217.870000,345.440000C228.170000,357.050000,215.520000,378.310000,208.510000,388.270000C206.710000,390.830000,202.820000,390.500000,201.500000,387.660000C196.660000,377.280000,187.960000,356.140000,191.880000,346.030000Z" fill="rgb(70,163,140)" stroke="none" stroke-width="1"/><path id="e1rh41gmffsp60" d="M213.300000,346.030000C213.460000,345.610000,213.710000,345.230000,214.010000,344.890000C216.350000,342.260000,227.120000,331.740000,239.290000,345.440000C249.590000,357.050000,236.940000,378.310000,229.930000,388.270000C228.130000,390.830000,224.240000,390.500000,222.920000,387.660000C218.090000,377.280000,209.390000,356.140000,213.300000,346.030000Z" fill="rgb(70,163,140)" stroke="none" stroke-width="1"/><path id="e1rh41gmffsp61" d="M231.620000,348.920000C231.780000,348.500000,232.030000,348.120000,232.330000,347.780000C234.670000,345.150000,245.440000,334.630000,257.610000,348.330000C267.910000,359.940000,255.260000,381.200000,248.250000,391.160000C246.450000,393.720000,242.560000,393.390000,241.240000,390.550000C236.400000,380.160000,227.700000,359.020000,231.620000,348.920000Z" fill="rgb(70,163,140)" stroke="none" stroke-width="1"/><path id="e1rh41gmffsp62" d="M244.170000,352.670000C244.330000,352.250000,244.580000,351.870000,244.880000,351.530000C247.220000,348.900000,257.990000,338.380000,270.160000,352.080000C280.460000,363.690000,267.810000,384.950000,260.800000,394.910000C259,397.470000,255.110000,397.140000,253.790000,394.300000C248.950000,383.920000,240.250000,362.780000,244.170000,352.670000Z" fill="rgb(70,163,140)" stroke="none" stroke-width="1"/></g><g id="e1rh41gmffsp63"><path id="e1rh41gmffsp64" d="M157.470000,344.490000C157.710000,343.820000,158.110000,343.240000,158.620000,342.750000C161.240000,340.300000,170.820000,332.840000,181.600000,343.460000C190.830000,352.560000,180.030000,369.030000,173.500000,377.280000C171.500000,379.800000,167.570000,379.420000,166.080000,376.570000C161.680000,368.150000,154.550000,352.540000,157.470000,344.490000Z" fill="rgb(173,210,94)" stroke="none" stroke-width="1"/><path id="e1rh41gmffsp65" d="M173.960000,339.140000C174.200000,338.470000,174.600000,337.890000,175.110000,337.400000C177.730000,334.950000,187.310000,327.490000,198.090000,338.110000C207.320000,347.210000,196.520000,363.680000,189.990000,371.930000C187.990000,374.450000,184.060000,374.070000,182.570000,371.220000C178.170000,362.800000,171.040000,347.190000,173.960000,339.140000Z" fill="rgb(173,210,94)" stroke="none" stroke-width="1"/><path id="e1rh41gmffsp66" d="M192.330000,339.140000C192.570000,338.470000,192.970000,337.890000,193.480000,337.400000C196.100000,334.950000,205.680000,327.490000,216.460000,338.110000C225.690000,347.210000,214.890000,363.680000,208.360000,371.930000C206.360000,374.450000,202.430000,374.070000,200.940000,371.220000C196.540000,362.800000,189.420000,347.190000,192.330000,339.140000Z" fill="rgb(173,210,94)" stroke="none" stroke-width="1"/><path id="e1rh41gmffsp67" d="M212.030000,339.140000C212.270000,338.470000,212.670000,337.890000,213.180000,337.400000C215.800000,334.950000,225.380000,327.490000,236.160000,338.110000C245.390000,347.210000,234.590000,363.680000,228.060000,371.930000C226.060000,374.450000,222.130000,374.070000,220.640000,371.220000C216.240000,362.800000,209.120000,347.190000,212.030000,339.140000Z" fill="rgb(173,210,94)" stroke="none" stroke-width="1"/><path id="e1rh41gmffsp68" d="M228.870000,341.470000C229.110000,340.800000,229.510000,340.220000,230.020000,339.730000C232.640000,337.280000,242.220000,329.820000,253,340.440000C262.230000,349.540000,251.430000,366.010000,244.900000,374.260000C242.900000,376.780000,238.970000,376.400000,237.480000,373.550000C233.080000,365.120000,225.960000,349.510000,228.870000,341.470000Z" fill="rgb(173,210,94)" stroke="none" stroke-width="1"/><path id="e1rh41gmffsp69" d="M240.420000,344.490000C240.660000,343.820000,241.060000,343.240000,241.570000,342.750000C244.190000,340.300000,253.770000,332.840000,264.550000,343.460000C273.780000,352.560000,262.980000,369.030000,256.450000,377.280000C254.450000,379.800000,250.520000,379.420000,249.030000,376.570000C244.630000,368.150000,237.500000,352.540000,240.420000,344.490000Z" fill="rgb(173,210,94)" stroke="none" stroke-width="1"/></g><g id="e1rh41gmffsp70"><path id="e1rh41gmffsp71" d="M160.550000,334.140000C160.790000,333.450000,161.200000,332.840000,161.730000,332.340000C164.290000,329.930000,173.280000,322.990000,183.380000,333.070000C191.900000,341.580000,182.360000,356.820000,176.170000,364.890000C174.110000,367.570000,169.950000,367.200000,168.420000,364.190000C164.250000,356.030000,157.930000,341.680000,160.550000,334.140000Z" fill="rgb(41,99,87)" stroke="none" stroke-width="1"/><path id="e1rh41gmffsp72" d="M176.130000,329.020000C176.370000,328.330000,176.780000,327.720000,177.310000,327.220000C179.870000,324.810000,188.860000,317.870000,198.960000,327.950000C207.480000,336.460000,197.940000,351.700000,191.750000,359.770000C189.690000,362.450000,185.530000,362.080000,184,359.070000C179.830000,350.910000,173.510000,336.560000,176.130000,329.020000Z" fill="rgb(41,99,87)" stroke="none" stroke-width="1"/><path id="e1rh41gmffsp73" d="M193.490000,329.020000C193.730000,328.330000,194.140000,327.720000,194.670000,327.220000C197.230000,324.810000,206.220000,317.870000,216.320000,327.950000C224.840000,336.460000,215.300000,351.700000,209.110000,359.770000C207.050000,362.450000,202.890000,362.080000,201.360000,359.070000C197.190000,350.910000,190.870000,336.560000,193.490000,329.020000Z" fill="rgb(41,99,87)" stroke="none" stroke-width="1"/><path id="e1rh41gmffsp74" d="M212.110000,329.020000C212.350000,328.330000,212.760000,327.720000,213.290000,327.220000C215.850000,324.810000,224.840000,317.870000,234.940000,327.950000C243.460000,336.460000,233.920000,351.700000,227.730000,359.770000C225.670000,362.450000,221.510000,362.080000,219.980000,359.070000C215.810000,350.910000,209.490000,336.560000,212.110000,329.020000Z" fill="rgb(41,99,87)" stroke="none" stroke-width="1"/><path id="e1rh41gmffsp75" d="M228.020000,331.240000C228.260000,330.550000,228.670000,329.940000,229.200000,329.440000C231.760000,327.030000,240.750000,320.090000,250.850000,330.170000C259.370000,338.680000,249.830000,353.920000,243.640000,361.990000C241.580000,364.670000,237.420000,364.300000,235.890000,361.290000C231.720000,353.140000,225.400000,338.780000,228.020000,331.240000Z" fill="rgb(41,99,87)" stroke="none" stroke-width="1"/><path id="e1rh41gmffsp76" d="M238.930000,334.140000C239.170000,333.450000,239.580000,332.840000,240.110000,332.340000C242.670000,329.930000,251.660000,322.990000,261.760000,333.070000C270.280000,341.580000,260.740000,356.820000,254.550000,364.890000C252.490000,367.570000,248.330000,367.200000,246.800000,364.190000C242.630000,356.030000,236.310000,341.680000,238.930000,334.140000Z" fill="rgb(41,99,87)" stroke="none" stroke-width="1"/></g></g></g><g id="e1rh41gmffsp77"><g id="e1rh41gmffsp78"><g id="e1rh41gmffsp79"><path id="e1rh41gmffsp80" d="M160.140000,281.200000C160.290000,280.780000,160.550000,280.400000,160.850000,280.070000C162.820000,277.910000,170.720000,270.610000,179.600000,280.620000C186.890000,288.830000,178.780000,303.530000,173.460000,311.370000C171.770000,313.860000,168,313.540000,166.760000,310.800000C163.110000,302.740000,157.500000,288.390000,160.140000,281.200000Z" fill="rgb(41,99,87)" stroke="none" stroke-width="1"/><path id="e1rh41gmffsp81" d="M167.730000,278.400000C167.880000,277.980000,168.140000,277.600000,168.440000,277.270000C170.410000,275.110000,178.310000,267.810000,187.190000,277.820000C194.480000,286.030000,186.370000,300.730000,181.050000,308.570000C179.360000,311.060000,175.590000,310.740000,174.350000,308C170.700000,299.940000,165.100000,285.580000,167.730000,278.400000Z" fill="rgb(41,99,87)" stroke="none" stroke-width="1"/><path id="e1rh41gmffsp82" d="M179.250000,277.330000C179.400000,276.910000,179.660000,276.530000,179.960000,276.200000C181.930000,274.040000,189.830000,266.740000,198.710000,276.750000C206,284.960000,197.890000,299.660000,192.570000,307.500000C190.880000,309.990000,187.110000,309.670000,185.870000,306.930000C182.220000,298.870000,176.620000,284.520000,179.250000,277.330000Z" fill="rgb(41,99,87)" stroke="none" stroke-width="1"/><path id="e1rh41gmffsp83" d="M191.250000,276.240000C191.400000,275.820000,191.660000,275.440000,191.960000,275.110000C193.930000,272.950000,201.830000,265.650000,210.710000,275.660000C218,283.870000,209.890000,298.570000,204.570000,306.410000C202.880000,308.900000,199.110000,308.580000,197.870000,305.840000C194.220000,297.780000,188.610000,283.430000,191.250000,276.240000Z" fill="rgb(41,99,87)" stroke="none" stroke-width="1"/><path id="e1rh41gmffsp84" d="M207.240000,276.240000C207.390000,275.820000,207.650000,275.440000,207.950000,275.110000C209.920000,272.950000,217.820000,265.650000,226.700000,275.660000C233.990000,283.870000,225.880000,298.570000,220.560000,306.410000C218.870000,308.900000,215.100000,308.580000,213.860000,305.840000C210.210000,297.780000,204.610000,283.430000,207.240000,276.240000Z" fill="rgb(41,99,87)" stroke="none" stroke-width="1"/><path id="e1rh41gmffsp85" d="M200.650000,276.240000C200.800000,275.820000,201.060000,275.440000,201.360000,275.110000C203.330000,272.950000,211.230000,265.650000,220.110000,275.660000C227.400000,283.870000,219.290000,298.570000,213.970000,306.410000C212.280000,308.900000,208.510000,308.580000,207.270000,305.840000C203.620000,297.780000,198.020000,283.430000,200.650000,276.240000Z" fill="rgb(41,99,87)" stroke="none" stroke-width="1"/><path id="e1rh41gmffsp86" d="M220.910000,278.400000C221.060000,277.980000,221.320000,277.600000,221.620000,277.270000C223.590000,275.110000,231.490000,267.810000,240.370000,277.820000C247.660000,286.030000,239.550000,300.730000,234.230000,308.570000C232.540000,311.060000,228.770000,310.740000,227.530000,308C223.880000,299.940000,218.280000,285.580000,220.910000,278.400000Z" fill="rgb(41,99,87)" stroke="none" stroke-width="1"/><path id="e1rh41gmffsp87" d="M228.900000,278.400000C229.050000,277.980000,229.310000,277.600000,229.610000,277.270000C231.580000,275.110000,239.480000,267.810000,248.360000,277.820000C255.650000,286.030000,247.540000,300.730000,242.220000,308.570000C240.530000,311.060000,236.760000,310.740000,235.520000,308C231.870000,299.940000,226.260000,285.580000,228.900000,278.400000Z" fill="rgb(41,99,87)" stroke="none" stroke-width="1"/><path id="e1rh41gmffsp88" d="M236.550000,278.400000C236.700000,277.980000,236.960000,277.600000,237.260000,277.270000C239.230000,275.110000,247.130000,267.810000,256.010000,277.820000C263.300000,286.030000,255.190000,300.730000,249.870000,308.570000C248.180000,311.060000,244.410000,310.740000,243.170000,308C239.520000,299.940000,233.920000,285.580000,236.550000,278.400000Z" fill="rgb(41,99,87)" stroke="none" stroke-width="1"/></g><g id="e1rh41gmffsp89"><path id="e1rh41gmffsp90" d="M158.400000,264.310000C158.620000,263.640000,158.980000,263.040000,159.470000,262.530000C161.860000,260.050000,170.370000,252.790000,179.920000,263.270000C187.760000,271.870000,179.390000,287.110000,173.550000,295.620000C171.510000,298.590000,167.030000,298.220000,165.530000,294.950000C161.600000,286.390000,155.930000,271.940000,158.400000,264.310000Z" fill="rgb(189,48,77)" stroke="none" stroke-width="1"/><path id="e1rh41gmffsp91" d="M173.110000,259.010000C173.330000,258.340000,173.690000,257.740000,174.180000,257.230000C176.570000,254.750000,185.080000,247.490000,194.630000,257.970000C202.470000,266.570000,194.100000,281.810000,188.260000,290.320000C186.220000,293.290000,181.740000,292.920000,180.240000,289.650000C176.310000,281.090000,170.640000,266.630000,173.110000,259.010000Z" fill="rgb(189,48,77)" stroke="none" stroke-width="1"/><path id="e1rh41gmffsp92" d="M189.500000,259.010000C189.720000,258.340000,190.080000,257.740000,190.570000,257.230000C192.960000,254.750000,201.470000,247.490000,211.020000,257.970000C218.860000,266.570000,210.490000,281.810000,204.650000,290.320000C202.610000,293.290000,198.130000,292.920000,196.630000,289.650000C192.700000,281.090000,187.030000,266.630000,189.500000,259.010000Z" fill="rgb(189,48,77)" stroke="none" stroke-width="1"/><path id="e1rh41gmffsp93" d="M207.080000,259.010000C207.300000,258.340000,207.660000,257.740000,208.150000,257.230000C210.540000,254.750000,219.050000,247.490000,228.600000,257.970000C236.440000,266.570000,228.070000,281.810000,222.230000,290.320000C220.190000,293.290000,215.710000,292.920000,214.210000,289.650000C210.280000,281.090000,204.600000,266.630000,207.080000,259.010000Z" fill="rgb(189,48,77)" stroke="none" stroke-width="1"/><path id="e1rh41gmffsp94" d="M222.100000,261.310000C222.320000,260.640000,222.680000,260.040000,223.170000,259.530000C225.560000,257.050000,234.070000,249.790000,243.620000,260.270000C251.460000,268.870000,243.090000,284.110000,237.250000,292.620000C235.210000,295.590000,230.730000,295.220000,229.230000,291.950000C225.300000,283.390000,219.620000,268.940000,222.100000,261.310000Z" fill="rgb(189,48,77)" stroke="none" stroke-width="1"/><path id="e1rh41gmffsp95" d="M232.390000,264.310000C232.610000,263.640000,232.970000,263.040000,233.460000,262.530000C235.850000,260.050000,244.360000,252.790000,253.910000,263.270000C261.750000,271.870000,253.380000,287.110000,247.540000,295.620000C245.500000,298.590000,241.020000,298.220000,239.520000,294.950000C235.590000,286.390000,229.920000,271.940000,232.390000,264.310000Z" fill="rgb(189,48,77)" stroke="none" stroke-width="1"/></g><g id="e1rh41gmffsp96"><path id="e1rh41gmffsp97" d="M158.610000,247.990000C158.750000,247.640000,158.960000,247.330000,159.220000,247.050000C161.180000,244.920000,169.990000,236.610000,179.940000,247.510000C188.470000,256.870000,177.810000,274.100000,172.090000,281.950000C170.660000,283.920000,167.650000,283.630000,166.600000,281.430000C162.650000,273.220000,155.370000,256.130000,158.610000,247.990000Z" fill="rgb(173,210,94)" stroke="none" stroke-width="1"/><path id="e1rh41gmffsp98" d="M173.310000,242.680000C173.450000,242.330000,173.660000,242.020000,173.920000,241.740000C175.880000,239.610000,184.690000,231.300000,194.640000,242.200000C203.170000,251.560000,192.510000,268.790000,186.790000,276.640000C185.360000,278.610000,182.350000,278.320000,181.300000,276.120000C177.360000,267.910000,170.080000,250.820000,173.310000,242.680000Z" fill="rgb(173,210,94)" stroke="none" stroke-width="1"/><path id="e1rh41gmffsp99" d="M189.710000,242.680000C189.850000,242.330000,190.060000,242.020000,190.320000,241.740000C192.280000,239.610000,201.090000,231.300000,211.040000,242.200000C219.570000,251.560000,208.910000,268.790000,203.190000,276.640000C201.760000,278.610000,198.750000,278.320000,197.700000,276.120000C193.750000,267.910000,186.470000,250.820000,189.710000,242.680000Z" fill="rgb(173,210,94)" stroke="none" stroke-width="1"/><path id="e1rh41gmffsp100" d="M207.280000,242.680000C207.420000,242.330000,207.630000,242.020000,207.890000,241.740000C209.850000,239.610000,218.660000,231.300000,228.610000,242.200000C237.140000,251.560000,226.480000,268.790000,220.760000,276.640000C219.330000,278.610000,216.320000,278.320000,215.270000,276.120000C211.320000,267.910000,204.050000,250.820000,207.280000,242.680000Z" fill="rgb(173,210,94)" stroke="none" stroke-width="1"/><path id="e1rh41gmffsp101" d="M222.300000,244.980000C222.440000,244.630000,222.650000,244.320000,222.910000,244.040000C224.870000,241.910000,233.680000,233.600000,243.630000,244.500000C252.160000,253.860000,241.500000,271.090000,235.780000,278.940000C234.350000,280.910000,231.340000,280.620000,230.290000,278.420000C226.340000,270.220000,219.070000,253.130000,222.300000,244.980000Z" fill="rgb(173,210,94)" stroke="none" stroke-width="1"/><path id="e1rh41gmffsp102" d="M232.600000,247.990000C232.740000,247.640000,232.950000,247.330000,233.210000,247.050000C235.170000,244.920000,243.980000,236.610000,253.930000,247.510000C262.460000,256.870000,251.800000,274.100000,246.080000,281.950000C244.650000,283.920000,241.640000,283.630000,240.590000,281.430000C236.640000,273.220000,229.360000,256.130000,232.600000,247.990000Z" fill="rgb(173,210,94)" stroke="none" stroke-width="1"/></g></g></g><g id="e1rh41gmffsp103"><path id="e1rh41gmffsp104" d="M431.010000,197.350000L434.950000,219.030000C435.450000,221.760000,433.450000,224.370000,430.510000,224.770000C419.390000,226.300000,409.680000,225.380000,404.070000,224.510000C401.220000,224.070000,399.280000,221.590000,399.670000,218.930000L402.830000,197.500000C403.190000,195.040000,405.460000,193.200000,408.130000,193.200000L425.740000,193.200000C428.340000,193.210000,430.570000,194.960000,431.010000,197.350000Z" fill="rgb(137,101,82)" stroke="none" stroke-width="1"/><g id="e1rh41gmffsp105"><path id="e1rh41gmffsp106" d="M362.350000,142.890000C362.350000,142.890000,363.950000,113.870000,389.650000,106.410000C415.350000,98.950000,418.590000,94.390000,418.590000,94.390000C418.590000,94.390000,462.390000,104.750000,468.300000,122.160000C474.210000,139.570000,474.400000,151.170000,474.400000,151.170000L465.930000,162.150000L365.530000,156.680000L362.350000,142.890000Z" fill="rgb(14,19,41)" stroke="none" stroke-width="1"/><path id="e1rh41gmffsp107" d="M474.400000,151.170000C473.290000,151.170000,472.250000,151.580000,471.360000,152.280000C468.570000,131.240000,446.010000,114.840000,418.590000,114.840000C393.050000,114.840000,371.730000,129.070000,366.670000,148.030000C365.570000,146.520000,364.040000,145.590000,362.350000,145.590000C358.980000,145.590000,356.250000,149.300000,356.250000,153.870000C356.250000,158.440000,358.980000,162.150000,362.350000,162.150000C363.620000,162.150000,364.800000,161.620000,365.780000,160.710000C368.360000,181.920000,391.010000,198.510000,418.590000,198.510000C443.970000,198.510000,465.170000,184.460000,470.400000,165.690000C471.470000,166.960000,472.870000,167.730000,474.400000,167.730000C477.770000,167.730000,480.500000,164.020000,480.500000,159.450000C480.500000,154.880000,477.770000,151.170000,474.400000,151.170000ZM409.310000,167.890000L412.290000,142.530000C412.530000,140.490000,414.260000,138.960000,416.310000,138.960000L419.810000,138.960000C421.770000,138.960000,423.440000,140.360000,423.790000,142.280000L428.390000,167.640000C428.840000,170.120000,426.930000,172.410000,424.410000,172.410000L413.320000,172.410000C410.910000,172.410000,409.030000,170.290000,409.310000,167.890000ZM418.870000,189.180000C405.850000,189.180000,405.850000,182.050000,405.850000,182.050000L407.660000,182.050000C408.960000,180.040000,411,178.600000,413.360000,178.120000C414.700000,177.850000,416.410000,177.640000,418.580000,177.590000C418.580000,177.590000,421.300000,177.580000,424.230000,178.320000C426.380000,178.860000,428.230000,180.230000,429.490000,182.050000L431.880000,182.050000C431.890000,182.050000,431.160000,189.180000,418.870000,189.180000Z" fill="rgb(167,122,100)" stroke="none" stroke-width="1"/><path id="e1rh41gmffsp108" d="M413.330000,172.410000L424.420000,172.410000C426.940000,172.410000,428.850000,170.120000,428.400000,167.640000L423.800000,142.280000C423.450000,140.360000,421.770000,138.960000,419.820000,138.960000L416.320000,138.960000C414.270000,138.960000,412.540000,140.500000,412.300000,142.530000L409.320000,167.890000C409.030000,170.290000,410.910000,172.410000,413.330000,172.410000Z" fill="rgb(137,101,82)" stroke="none" stroke-width="1"/><path id="e1rh41gmffsp109" d="M424.250000,178.320000C421.320000,177.580000,418.600000,177.590000,418.600000,177.590000C416.430000,177.650000,414.720000,177.850000,413.380000,178.120000C411.020000,178.600000,408.980000,180.040000,407.680000,182.050000L429.510000,182.050000C428.240000,180.230000,426.400000,178.860000,424.250000,178.320000Z" fill="rgb(196,146,109)" stroke="none" stroke-width="1"/><path id="e1rh41gmffsp110" d="M407.670000,182.050000L405.860000,182.050000C405.860000,182.050000,405.860000,189.180000,418.880000,189.180000C431.170000,189.180000,431.900000,182.050000,431.900000,182.050000L429.510000,182.050000L407.670000,182.050000Z" fill="rgb(137,101,82)" stroke="none" stroke-width="1"/><g id="e1rh41gmffsp111" transform="matrix(0.99756405025982 -0.06975647374413 0.06975647374413 0.99756405025982 -9.98938246602239 29.62152149763648)"><circle id="e1rh41gmffsp112" r="7.650000" transform="matrix(1 0 0 1 444.25000000000000 157.84000000000000)" fill="rgb(179,225,248)" stroke="none" stroke-width="1"/><circle id="e1rh41gmffsp113" r="7.650000" transform="matrix(1 0 0 1 394.00999999999999 157.84000000000000)" fill="rgb(179,225,248)" stroke="none" stroke-width="1"/></g><g id="e1rh41gmffsp114"><path id="e1rh41gmffsp115" d="M453.640000,143.780000C450.830000,143.600000,443.130000,144.280000,435.150000,144.290000C433.640000,144.290000,432.130000,144.310000,431.530000,142.920000C430.920000,141.520000,431.060000,139.760000,434.300000,138.490000C440.520000,136.050000,458.220000,139.130000,457.240000,142.090000L457.240000,142.090000C456.740000,143.590000,455.200000,143.880000,453.640000,143.780000Z" fill="rgb(14,19,41)" stroke="none" stroke-width="1"/><path id="e1rh41gmffsp116" d="M382.070000,143.780000C384.880000,143.600000,392.580000,144.280000,400.560000,144.290000C402.070000,144.290000,403.580000,144.310000,404.180000,142.920000C404.790000,141.520000,404.650000,139.760000,401.410000,138.490000C395.190000,136.050000,377.490000,139.130000,378.470000,142.090000L378.470000,142.090000C378.970000,143.590000,380.500000,143.880000,382.070000,143.780000Z" fill="rgb(14,19,41)" stroke="none" stroke-width="1"/></g></g></g><g id="e1rh41gmffsp117" transform="matrix(1 0 0 1 5.65779929499996 0.30524250499994)"><path id="e1rh41gmffsp118" d="M510.140000,254.180000L465.410000,218.480000C459.780000,213.990000,453.050000,211.640000,450.560000,213.350000C441.170000,219.810000,437.830000,228.840000,436.650000,234.570000C436.050000,237.480000,440.330000,242.730000,446.300000,246.420000L494.370000,276.150000C499.890000,279.570000,505.100000,280.540000,506.560000,278.440000L516.200000,264.580000C517.640000,262.510000,515.070000,258.120000,510.140000,254.180000Z" fill="rgb(167,122,100)" stroke="none" stroke-width="1"/><g id="e1rh41gmffsp119"><path id="e1rh41gmffsp120" d="M503.850000,267.930000L507.730000,263.580000C510.870000,260.070000,516.310000,259.760000,519.820000,262.890000L531.590000,273.400000C535.100000,276.540000,535.410000,281.980000,532.280000,285.490000L528.400000,289.840000C525.260000,293.350000,519.820000,293.660000,516.310000,290.530000L509.570000,284.510000L509.420000,292.500000C509.380000,294.690000,507.560000,296.440000,505.370000,296.400000C503.180000,296.360000,501.430000,294.540000,501.470000,292.350000L501.740000,278.140000C501.750000,277.530000,501.910000,276.960000,502.170000,276.450000C501.180000,273.600000,501.720000,270.320000,503.850000,267.930000Z" fill="rgb(167,122,100)" stroke="none" stroke-width="1"/></g></g><g id="e1rh41gmffsp121"><path id="e1rh41gmffsp122" d="M331.540000,256.160000L375.120000,219.060000C380.600000,214.390000,387.260000,211.830000,389.800000,213.460000C399.390000,219.620000,403.010000,228.540000,404.370000,234.220000C405.060000,237.110000,400.950000,242.490000,395.100000,246.370000L347.990000,277.610000C342.580000,281.200000,337.400000,282.340000,335.870000,280.280000L325.800000,266.730000C324.310000,264.720000,326.740000,260.250000,331.540000,256.160000Z" fill="rgb(167,122,100)" stroke="none" stroke-width="1"/><g id="e1rh41gmffsp123"><path id="e1rh41gmffsp124" d="M338.260000,269.700000L334.250000,265.480000C331.010000,262.070000,325.560000,261.930000,322.150000,265.170000L310.720000,276.040000C307.310000,279.280000,307.170000,284.730000,310.410000,288.140000L314.420000,292.360000C317.660000,295.770000,323.110000,295.910000,326.520000,292.670000L333.070000,286.440000L333.470000,294.420000C333.580000,296.600000,335.460000,298.300000,337.640000,298.190000C339.820000,298.080000,341.520000,296.200000,341.410000,294.020000L340.690000,279.830000C340.660000,279.220000,340.480000,278.660000,340.210000,278.160000C341.110000,275.280000,340.470000,272.020000,338.260000,269.700000Z" fill="rgb(167,122,100)" stroke="none" stroke-width="1"/></g></g><g id="e1rh41gmffsp125"><path id="e1rh41gmffsp126" d="M419.020000,483.530000C418.680000,482.660000,418.160000,481.900000,417.510000,481.280000C417.540000,480.800000,417.570000,480.320000,417.600000,479.830000L421.380000,398.230000C421.860000,387.960000,419.940000,378.150000,417.120000,376.620000C406.460000,370.870000,397.140000,374.320000,391.760000,377.610000C389.030000,379.280000,387.160000,388.590000,387.540000,398.600000L390.570000,479.250000C390.570000,479.300000,390.580000,479.340000,390.580000,479.390000C389.910000,479.570000,389.280000,479.840000,388.690000,480.220000C384.140000,483.240000,371.100000,491.750000,363.590000,495.400000C363.500000,495.440000,363.410000,495.490000,363.320000,495.540000C357.320000,498.600000,359.650000,507.690000,366.380000,507.560000L370.850000,507.470000C370.850000,507.470000,404.520000,507.920000,417.340000,507.470000C427.100000,507.130000,422.020000,491.150000,419.020000,483.530000Z" fill="rgb(167,122,100)" stroke="none" stroke-width="1"/><g id="e1rh41gmffsp127"><path id="e1rh41gmffsp128" d="M378,474.960000C378,474.960000,382.590000,469.700000,387.860000,474.960000C393.130000,480.220000,382.720000,491.340000,382.720000,491.340000C382.720000,491.340000,375.670000,479.470000,378,474.960000Z" fill="rgb(43,51,119)" stroke="none" stroke-width="1"/><path id="e1rh41gmffsp129" d="M384.870000,472.700000C384.870000,472.700000,389.460000,467.440000,394.730000,472.700000C400,477.960000,389.590000,489.080000,389.590000,489.080000C389.590000,489.080000,382.540000,477.210000,384.870000,472.700000Z" fill="rgb(43,51,119)" stroke="none" stroke-width="1"/><path id="e1rh41gmffsp130" d="M392.520000,472.700000C392.520000,472.700000,397.110000,467.440000,402.380000,472.700000C407.650000,477.960000,397.240000,489.080000,397.240000,489.080000C397.240000,489.080000,390.190000,477.210000,392.520000,472.700000Z" fill="rgb(43,51,119)" stroke="none" stroke-width="1"/><path id="e1rh41gmffsp131" d="M400.720000,472.700000C400.720000,472.700000,405.310000,467.440000,410.580000,472.700000C415.850000,477.960000,405.440000,489.080000,405.440000,489.080000C405.440000,489.080000,398.390000,477.210000,400.720000,472.700000Z" fill="rgb(43,51,119)" stroke="none" stroke-width="1"/><path id="e1rh41gmffsp132" d="M407.730000,473.680000C407.730000,473.680000,412.320000,468.420000,417.590000,473.680000C422.860000,478.940000,412.450000,490.060000,412.450000,490.060000C412.450000,490.060000,405.410000,478.190000,407.730000,473.680000Z" fill="rgb(43,51,119)" stroke="none" stroke-width="1"/><path id="e1rh41gmffsp133" d="M412.540000,474.960000C412.540000,474.960000,417.130000,469.700000,422.400000,474.960000C427.670000,480.220000,417.260000,491.340000,417.260000,491.340000C417.260000,491.340000,410.210000,479.470000,412.540000,474.960000Z" fill="rgb(43,51,119)" stroke="none" stroke-width="1"/></g></g><g id="e1rh41gmffsp134"><path id="e1rh41gmffsp135" d="M485.400000,494.260000C485.310000,494.210000,485.220000,494.170000,485.130000,494.120000C477.620000,490.480000,464.580000,481.960000,460.030000,478.940000C459.240000,478.420000,458.360000,478.090000,457.440000,477.950000L461.160000,397.640000C461.640000,387.370000,459.720000,377.560000,456.900000,376.030000C446.240000,370.280000,436.920000,373.730000,431.540000,377.020000C428.810000,378.690000,426.940000,388,427.320000,398.010000L430.350000,478.660000C430.380000,479.410000,430.420000,480.130000,430.470000,480.840000C430.160000,481.270000,429.890000,481.720000,429.700000,482.230000C426.710000,489.860000,421.620000,505.840000,431.380000,506.180000C444.200000,506.630000,477.870000,506.180000,477.870000,506.180000L482.340000,506.270000C489.070000,506.400000,491.400000,497.310000,485.400000,494.260000Z" fill="rgb(167,122,100)" stroke="none" stroke-width="1"/></g><g id="e1rh41gmffsp136"><path id="e1rh41gmffsp137" d="M453.220000,349L388.180000,349C381.580000,349,376.180000,343.600000,376.180000,337L376.180000,224.150000C376.180000,217.550000,381.580000,212.150000,388.180000,212.150000L453.220000,212.150000C459.820000,212.150000,465.220000,217.550000,465.220000,224.150000L465.220000,337C465.220000,343.600000,459.820000,349,453.220000,349Z" fill="rgb(167,122,100)" stroke="none" stroke-width="1"/><path id="e1rh41gmffsp138" d="M420.690000,306.540000L420.690000,306.540000C418.090000,306.540000,415.960000,304.410000,415.960000,301.810000L415.960000,301.810000C415.960000,299.210000,418.090000,297.080000,420.690000,297.080000L420.690000,297.080000C423.290000,297.080000,425.420000,299.210000,425.420000,301.810000L425.420000,301.810000C425.420000,304.410000,423.290000,306.540000,420.690000,306.540000Z" fill="rgb(137,101,82)" stroke="none" stroke-width="1"/><g id="e1rh41gmffsp139"><path id="e1rh41gmffsp140" d="M405.030000,223.600000C405.380000,216.660000,399.990000,217.120000,397.710000,217.620000C397.100000,217.750000,396.630000,218.230000,396.490000,218.830000L394.240000,228.230000C393.890000,229.670000,395.500000,230.790000,396.730000,229.960000L404.320000,224.830000C404.730000,224.550000,405,224.100000,405.030000,223.600000Z" fill="rgb(41,53,122)" stroke="none" stroke-width="1"/><path id="e1rh41gmffsp141" d="M399.330000,217.620000C404.570000,213.050000,400.500000,209.500000,398.560000,208.200000C398.040000,207.860000,397.380000,207.850000,396.840000,208.160000L388.510000,213.050000C387.230000,213.800000,387.540000,215.740000,389,216.050000L397.960000,217.960000C398.440000,218.060000,398.950000,217.950000,399.330000,217.620000Z" fill="rgb(41,53,122)" stroke="none" stroke-width="1"/><path id="e1rh41gmffsp142" d="M420.800000,226.430000C417.240000,220.460000,413.010000,223.830000,411.390000,225.520000C410.960000,225.970000,410.830000,226.620000,411.040000,227.200000L414.370000,236.270000C414.880000,237.660000,416.840000,237.700000,417.400000,236.320000L420.870000,227.840000C421.080000,227.380000,421.060000,226.850000,420.800000,226.430000Z" fill="rgb(41,53,122)" stroke="none" stroke-width="1"/><path id="e1rh41gmffsp143" d="M428.580000,223.570000C428.230000,216.630000,433.620000,217.090000,435.900000,217.590000C436.510000,217.720000,436.980000,218.200000,437.120000,218.800000L439.370000,228.200000C439.720000,229.640000,438.110000,230.760000,436.880000,229.930000L429.290000,224.800000C428.880000,224.520000,428.600000,224.070000,428.580000,223.570000Z" fill="rgb(41,53,122)" stroke="none" stroke-width="1"/><path id="e1rh41gmffsp144" d="M434.280000,217.590000C429.040000,213.020000,433.110000,209.470000,435.050000,208.170000C435.570000,207.830000,436.230000,207.820000,436.770000,208.130000L445.100000,213.020000C446.380000,213.770000,446.070000,215.710000,444.610000,216.020000L435.650000,217.930000C435.170000,218.030000,434.650000,217.910000,434.280000,217.590000Z" fill="rgb(70,163,140)" stroke="none" stroke-width="1"/><path id="e1rh41gmffsp145" d="M420.880000,226.430000C422.790000,219.750000,427.740000,221.920000,429.740000,223.140000C430.270000,223.460000,430.560000,224.060000,430.500000,224.680000L429.600000,234.300000C429.460000,235.780000,427.580000,236.320000,426.680000,235.130000L421.150000,227.820000C420.860000,227.420000,420.740000,226.900000,420.880000,226.430000Z" fill="rgb(41,53,122)" stroke="none" stroke-width="1"/><path id="e1rh41gmffsp146" d="M414.670000,226.460000C412.760000,219.780000,407.810000,221.950000,405.810000,223.170000C405.280000,223.490000,404.990000,224.090000,405.050000,224.710000L405.950000,234.330000C406.090000,235.810000,407.970000,236.350000,408.870000,235.160000L414.400000,227.850000C414.690000,227.450000,414.810000,226.930000,414.670000,226.460000Z" fill="rgb(70,163,140)" stroke="none" stroke-width="1"/></g></g><g id="e1rh41gmffsp147" transform="matrix(0.99756405025982 -0.06975647374413 0.06975647374413 0.99756405025982 -24.93674203162954 30.36735836980938)"><g id="e1rh41gmffsp148"><path id="e1rh41gmffsp149" d="M367.020000,385.780000C367.020000,385.780000,378.510000,372.330000,391.710000,385.780000C404.910000,399.230000,378.820000,427.620000,378.820000,427.620000C378.820000,427.620000,361.190000,397.300000,367.020000,385.780000Z" fill="rgb(173,210,94)" stroke="none" stroke-width="1"/><path id="e1rh41gmffsp150" d="M384.210000,380.010000C384.210000,380.010000,395.700000,366.560000,408.900000,380.010000C422.100000,393.460000,396.010000,421.850000,396.010000,421.850000C396.010000,421.850000,378.380000,391.540000,384.210000,380.010000Z" fill="rgb(173,210,94)" stroke="none" stroke-width="1"/><path id="e1rh41gmffsp151" d="M403.380000,380.010000C403.380000,380.010000,414.870000,366.560000,428.070000,380.010000C441.270000,393.460000,415.180000,421.850000,415.180000,421.850000C415.180000,421.850000,397.550000,391.540000,403.380000,380.010000Z" fill="rgb(173,210,94)" stroke="none" stroke-width="1"/><path id="e1rh41gmffsp152" d="M423.920000,380.010000C423.920000,380.010000,435.410000,366.560000,448.610000,380.010000C461.810000,393.460000,435.720000,421.850000,435.720000,421.850000C435.720000,421.850000,418.090000,391.540000,423.920000,380.010000Z" fill="rgb(173,210,94)" stroke="none" stroke-width="1"/><path id="e1rh41gmffsp153" d="M441.480000,382.510000C441.480000,382.510000,452.970000,369.060000,466.170000,382.510000C479.370000,395.960000,453.280000,424.350000,453.280000,424.350000C453.280000,424.350000,435.650000,394.040000,441.480000,382.510000Z" fill="rgb(173,210,94)" stroke="none" stroke-width="1"/><path id="e1rh41gmffsp154" d="M453.520000,385.780000C453.520000,385.780000,465.010000,372.330000,478.210000,385.780000C491.410000,399.230000,465.320000,427.620000,465.320000,427.620000C465.320000,427.620000,447.690000,397.300000,453.520000,385.780000Z" fill="rgb(173,210,94)" stroke="none" stroke-width="1"/></g><g id="e1rh41gmffsp155"><path id="e1rh41gmffsp156" d="M365.530000,369.690000C365.530000,369.690000,377.020000,356.240000,390.220000,369.690000C403.420000,383.140000,377.330000,411.530000,377.330000,411.530000C377.330000,411.530000,359.700000,381.220000,365.530000,369.690000Z" fill="rgb(43,51,119)" stroke="none" stroke-width="1"/><path id="e1rh41gmffsp157" d="M382.730000,363.930000C382.730000,363.930000,394.220000,350.480000,407.420000,363.930000C420.620000,377.380000,394.530000,405.770000,394.530000,405.770000C394.530000,405.770000,376.900000,375.460000,382.730000,363.930000Z" fill="rgb(43,51,119)" stroke="none" stroke-width="1"/><path id="e1rh41gmffsp158" d="M401.890000,363.930000C401.890000,363.930000,413.380000,350.480000,426.580000,363.930000C439.780000,377.380000,413.690000,405.770000,413.690000,405.770000C413.690000,405.770000,396.060000,375.460000,401.890000,363.930000Z" fill="rgb(43,51,119)" stroke="none" stroke-width="1"/><path id="e1rh41gmffsp159" d="M422.430000,363.930000C422.430000,363.930000,433.920000,350.480000,447.120000,363.930000C460.320000,377.380000,434.230000,405.770000,434.230000,405.770000C434.230000,405.770000,416.610000,375.460000,422.430000,363.930000Z" fill="rgb(43,51,119)" stroke="none" stroke-width="1"/><path id="e1rh41gmffsp160" d="M439.990000,366.430000C439.990000,366.430000,451.480000,352.980000,464.680000,366.430000C477.880000,379.880000,451.790000,408.270000,451.790000,408.270000C451.790000,408.270000,434.160000,377.960000,439.990000,366.430000Z" fill="rgb(43,51,119)" stroke="none" stroke-width="1"/><path id="e1rh41gmffsp161" d="M452.030000,369.690000C452.030000,369.690000,463.520000,356.240000,476.720000,369.690000C489.920000,383.140000,463.830000,411.530000,463.830000,411.530000C463.830000,411.530000,446.200000,381.220000,452.030000,369.690000Z" fill="rgb(43,51,119)" stroke="none" stroke-width="1"/></g><g id="e1rh41gmffsp162"><path id="e1rh41gmffsp163" d="M363.930000,350.870000C363.930000,350.870000,375.590000,337.420000,388.970000,350.870000C402.350000,364.320000,375.900000,392.710000,375.900000,392.710000C375.900000,392.710000,358.020000,362.400000,363.930000,350.870000Z" fill="rgb(41,99,87)" stroke="none" stroke-width="1"/><path id="e1rh41gmffsp164" d="M381.380000,345.110000C381.380000,345.110000,393.040000,331.660000,406.420000,345.110000C419.800000,358.560000,393.350000,386.950000,393.350000,386.950000C393.350000,386.950000,375.460000,356.640000,381.380000,345.110000Z" fill="rgb(41,99,87)" stroke="none" stroke-width="1"/><path id="e1rh41gmffsp165" d="M400.810000,345.110000C400.810000,345.110000,412.470000,331.660000,425.850000,345.110000C439.240000,358.560000,412.780000,386.950000,412.780000,386.950000C412.780000,386.950000,394.900000,356.640000,400.810000,345.110000Z" fill="rgb(41,99,87)" stroke="none" stroke-width="1"/><path id="e1rh41gmffsp166" d="M421.650000,345.110000C421.650000,345.110000,433.310000,331.660000,446.690000,345.110000C460.070000,358.560000,433.620000,386.950000,433.620000,386.950000C433.620000,386.950000,415.740000,356.640000,421.650000,345.110000Z" fill="rgb(41,99,87)" stroke="none" stroke-width="1"/><path id="e1rh41gmffsp167" d="M439.460000,347.610000C439.460000,347.610000,451.120000,334.160000,464.500000,347.610000C477.880000,361.060000,451.430000,389.450000,451.430000,389.450000C451.430000,389.450000,433.550000,359.140000,439.460000,347.610000Z" fill="rgb(41,99,87)" stroke="none" stroke-width="1"/><path id="e1rh41gmffsp168" d="M451.680000,350.870000C451.680000,350.870000,463.340000,337.420000,476.720000,350.870000C490.100000,364.320000,463.650000,392.710000,463.650000,392.710000C463.650000,392.710000,445.760000,362.400000,451.680000,350.870000Z" fill="rgb(41,99,87)" stroke="none" stroke-width="1"/></g><g id="e1rh41gmffsp169"><path id="e1rh41gmffsp170" d="M367.540000,339.480000C367.540000,339.480000,378.760000,326.920000,391.640000,339.480000C404.520000,352.040000,379.060000,378.550000,379.060000,378.550000C379.060000,378.550000,361.850000,350.240000,367.540000,339.480000Z" fill="rgb(70,163,140)" stroke="none" stroke-width="1"/><path id="e1rh41gmffsp171" d="M384.330000,334.100000C384.330000,334.100000,395.550000,321.540000,408.430000,334.100000C421.310000,346.660000,395.850000,373.170000,395.850000,373.170000C395.850000,373.170000,378.640000,344.860000,384.330000,334.100000Z" fill="rgb(70,163,140)" stroke="none" stroke-width="1"/><path id="e1rh41gmffsp172" d="M403.030000,334.100000C403.030000,334.100000,414.250000,321.540000,427.130000,334.100000C440.010000,346.660000,414.550000,373.170000,414.550000,373.170000C414.550000,373.170000,397.340000,344.860000,403.030000,334.100000Z" fill="rgb(70,163,140)" stroke="none" stroke-width="1"/><path id="e1rh41gmffsp173" d="M423.080000,334.100000C423.080000,334.100000,434.300000,321.540000,447.180000,334.100000C460.060000,346.660000,434.600000,373.170000,434.600000,373.170000C434.600000,373.170000,417.390000,344.860000,423.080000,334.100000Z" fill="rgb(70,163,140)" stroke="none" stroke-width="1"/><path id="e1rh41gmffsp174" d="M440.220000,336.430000C440.220000,336.430000,451.440000,323.870000,464.320000,336.430000C477.200000,348.990000,451.740000,375.500000,451.740000,375.500000C451.740000,375.500000,434.530000,347.200000,440.220000,336.430000Z" fill="rgb(70,163,140)" stroke="none" stroke-width="1"/><path id="e1rh41gmffsp175" d="M451.970000,339.480000C451.970000,339.480000,463.190000,326.920000,476.070000,339.480000C488.950000,352.040000,463.490000,378.550000,463.490000,378.550000C463.490000,378.550000,446.280000,350.240000,451.970000,339.480000Z" fill="rgb(70,163,140)" stroke="none" stroke-width="1"/></g><g id="e1rh41gmffsp176"><path id="e1rh41gmffsp177" d="M370.180000,326.070000C370.180000,326.070000,380.540000,315.500000,392.440000,326.070000C404.340000,336.640000,380.820000,358.960000,380.820000,358.960000C380.820000,358.960000,364.920000,335.130000,370.180000,326.070000Z" fill="rgb(173,210,94)" stroke="none" stroke-width="1"/><path id="e1rh41gmffsp178" d="M385.680000,321.540000C385.680000,321.540000,396.040000,310.970000,407.940000,321.540000C419.840000,332.110000,396.320000,354.430000,396.320000,354.430000C396.320000,354.430000,380.430000,330.600000,385.680000,321.540000Z" fill="rgb(173,210,94)" stroke="none" stroke-width="1"/><path id="e1rh41gmffsp179" d="M402.960000,321.540000C402.960000,321.540000,413.320000,310.970000,425.220000,321.540000C437.120000,332.110000,413.600000,354.430000,413.600000,354.430000C413.600000,354.430000,397.700000,330.600000,402.960000,321.540000Z" fill="rgb(173,210,94)" stroke="none" stroke-width="1"/><path id="e1rh41gmffsp180" d="M421.480000,321.540000C421.480000,321.540000,431.840000,310.970000,443.740000,321.540000C455.640000,332.110000,432.120000,354.430000,432.120000,354.430000C432.120000,354.430000,416.230000,330.600000,421.480000,321.540000Z" fill="rgb(173,210,94)" stroke="none" stroke-width="1"/><path id="e1rh41gmffsp181" d="M437.320000,323.510000C437.320000,323.510000,447.680000,312.940000,459.580000,323.510000C471.480000,334.080000,447.960000,356.400000,447.960000,356.400000C447.960000,356.400000,432.060000,332.570000,437.320000,323.510000Z" fill="rgb(173,210,94)" stroke="none" stroke-width="1"/><path id="e1rh41gmffsp182" d="M448.170000,326.070000C448.170000,326.070000,458.530000,315.500000,470.430000,326.070000C482.330000,336.640000,458.810000,358.960000,458.810000,358.960000C458.810000,358.960000,442.920000,335.130000,448.170000,326.070000Z" fill="rgb(173,210,94)" stroke="none" stroke-width="1"/></g></g><script><![CDATA[!function(t,n){"object"==typeof exports&&"undefined"!=typeof module?module.exports=n():"function"==typeof define&&define.amd?define(n):(t=t||self).__SVGATOR_PLAYER__=n()}(this,(function(){"use strict";function t(n){return(t="function"==typeof Symbol&&"symbol"==typeof Symbol.iterator?function(t){return typeof t}:function(t){return t&&"function"==typeof Symbol&&t.constructor===Symbol&&t!==Symbol.prototype?"symbol":typeof t})(n)}function n(t,n){if(!(t instanceof n))throw new TypeError("Cannot call a class as a function")}function e(t,n){for(var e=0;e<n.length;e++){var r=n[e];r.enumerable=r.enumerable||!1,r.configurable=!0,"value"in r&&(r.writable=!0),Object.defineProperty(t,r.key,r)}}function r(t,n,r){return n&&e(t.prototype,n),r&&e(t,r),t}function i(t){return(i=Object.setPrototypeOf?Object.getPrototypeOf:function(t){return t.__proto__||Object.getPrototypeOf(t)})(t)}function u(t,n){return(u=Object.setPrototypeOf||function(t,n){return t.__proto__=n,t})(t,n)}function o(t,n){return!n||"object"!=typeof n&&"function"!=typeof n?function(t){if(void 0===t)throw new ReferenceError("this hasn't been initialised - super() hasn't been called");return t}(t):n}function a(t){var n=function(){if("undefined"==typeof Reflect||!Reflect.construct)return!1;if(Reflect.construct.sham)return!1;if("function"==typeof Proxy)return!0;try{return Date.prototype.toString.call(Reflect.construct(Date,[],(function(){}))),!0}catch(t){return!1}}();return function(){var e,r=i(t);if(n){var u=i(this).constructor;e=Reflect.construct(r,arguments,u)}else e=r.apply(this,arguments);return o(this,e)}}function l(t,n,e){return(l="undefined"!=typeof Reflect&&Reflect.get?Reflect.get:function(t,n,e){var r=function(t,n){for(;!Object.prototype.hasOwnProperty.call(t,n)&&null!==(t=i(t)););return t}(t,n);if(r){var u=Object.getOwnPropertyDescriptor(r,n);return u.get?u.get.call(e):u.value}})(t,n,e||t)}var f=Math.abs;function s(t){return t}function c(t,n,e){var r=1-e;return 3*e*r*(t*r+n*e)+e*e*e}function h(){var t=arguments.length>0&&void 0!==arguments[0]?arguments[0]:0,n=arguments.length>1&&void 0!==arguments[1]?arguments[1]:0,e=arguments.length>2&&void 0!==arguments[2]?arguments[2]:1,r=arguments.length>3&&void 0!==arguments[3]?arguments[3]:1;return t<0||t>1||e<0||e>1?null:f(t-n)<=1e-5&&f(e-r)<=1e-5?s:function(i){if(i<=0)return t>0?i*n/t:0===n&&e>0?i*r/e:0;if(i>=1)return e<1?1+(i-1)*(r-1)/(e-1):1===e&&t<1?1+(i-1)*(n-1)/(t-1):1;for(var u,o=0,a=1;o<a;){var l=c(t,e,u=(o+a)/2);if(f(i-l)<1e-5)break;l<i?o=u:a=u}return c(n,r,u)}}function v(){return 1}function d(t){return 1===t?1:0}function y(){var t=arguments.length>0&&void 0!==arguments[0]?arguments[0]:1,n=arguments.length>1&&void 0!==arguments[1]?arguments[1]:0;if(1===t){if(0===n)return d;if(1===n)return v}var e=1/t;return function(t){return t>=1?1:(t+=n*e)-t%e}}function g(t){var n=arguments.length>1&&void 0!==arguments[1]?arguments[1]:2;if(Number.isInteger(t))return t;var e=Math.pow(10,n);return Math.round(t*e)/e}var p=Math.PI/180;function m(t,n,e){return t>=.5?e:n}function b(t,n,e){return 0===t||n===e?n:t*(e-n)+n}function w(t,n,e){var r=b(t,n,e);return r<=0?0:r}function x(t,n,e){return 0===t?n:1===t?e:{x:b(t,n.x,e.x),y:b(t,n.y,e.y)}}function k(t,n,e){return 0===t?n:1===t?e:{x:w(t,n.x,e.x),y:w(t,n.y,e.y)}}function A(t,n,e){var r=function(t,n,e){return Math.round(b(t,n,e))}(t,n,e);return r<=0?0:r>=255?255:r}function _(t,n,e){return 0===t?n:1===t?e:{r:A(t,n.r,e.r),g:A(t,n.g,e.g),b:A(t,n.b,e.b),a:b(t,null==n.a?1:n.a,null==e.a?1:e.a)}}function S(t,n,e){if(0===t)return n;if(1===t)return e;var r=n.length;if(r!==e.length)return m(t,n,e);for(var i=[],u=0;u<r;u++)i.push(_(t,n[u],e[u]));return i}function M(t,n,e){var r=n.length;if(r!==e.length)return m(t,n,e);for(var i=new Array(r),u=0;u<r;u++)i[u]=b(t,n[u],e[u]);return i}function O(t,n){for(var e=[],r=0;r<t;r++)e.push(n);return e}function E(t,n){if(--n<=0)return t;var e=(t=Object.assign([],t)).length;do{for(var r=0;r<e;r++)t.push(t[r])}while(--n>0);return t}var B,I=function(){function t(e){n(this,t),this.list=e,this.length=e.length}return r(t,[{key:"setAttribute",value:function(t,n){for(var e=this.list,r=0;r<this.length;r++)e[r].setAttribute(t,n)}},{key:"removeAttribute",value:function(t){for(var n=this.list,e=0;e<this.length;e++)n[e].removeAttribute(t)}},{key:"style",value:function(t,n){for(var e=this.list,r=0;r<this.length;r++)e[r].style[t]=n}}]),t}(),j=/-./g,P=function(t,n){return n.toUpperCase()};function F(t){return"function"==typeof t?t:m}function R(t){return t?"function"==typeof t?t:Array.isArray(t)?function(t){var n=arguments.length>1&&void 0!==arguments[1]?arguments[1]:s;if(!Array.isArray(t))return n;switch(t.length){case 1:return y(t[0])||n;case 2:return y(t[0],t[1])||n;case 4:return h(t[0],t[1],t[2],t[3])||n}return n}(t,null):function(t,n){var e=arguments.length>2&&void 0!==arguments[2]?arguments[2]:s;switch(t){case"linear":return s;case"steps":return y(n.steps||1,n.jump||0)||e;case"bezier":case"cubic-bezier":return h(n.x1||0,n.y1||0,n.x2||0,n.y2||0)||e}return e}(t.type,t.value,null):null}function T(t,n,e){var r=arguments.length>3&&void 0!==arguments[3]&&arguments[3],i=n.length-1;if(t<=n[0].t)return r?[0,0,n[0].v]:n[0].v;if(t>=n[i].t)return r?[i,1,n[i].v]:n[i].v;var u,o=n[0],a=null;for(u=1;u<=i;u++){if(!(t>n[u].t)){a=n[u];break}o=n[u]}return null==a?r?[i,1,n[i].v]:n[i].v:o.t===a.t?r?[u,1,a.v]:a.v:(t=(t-o.t)/(a.t-o.t),o.e&&(t=o.e(t)),r?[u,t,e(t,o.v,a.v)]:e(t,o.v,a.v))}function q(t,n){var e=arguments.length>2&&void 0!==arguments[2]?arguments[2]:null;return t&&t.length?"function"!=typeof n?null:("function"!=typeof e&&(e=null),function(r){var i=T(r,t,n);return null!=i&&e&&(i=e(i)),i}):null}function C(t,n){return t.t-n.t}function V(n,e,r,i,u){var o,a="@"===r[0],l="#"===r[0],f=B[r],s=m;switch(a?(o=r.substr(1),r=o.replace(j,P)):l&&(r=r.substr(1)),t(f)){case"function":if(s=f(i,u,T,R,r,a,e,n),l)return s;break;case"string":s=q(i,F(f));break;case"object":if((s=q(i,F(f.i),f.f))&&"function"==typeof f.u)return f.u(e,s,r,a,n)}return s?function(t,n,e){var r=arguments.length>3&&void 0!==arguments[3]&&arguments[3];if(r)return t instanceof I?function(r){return t.style(n,e(r))}:function(r){return t.style[n]=e(r)};if(Array.isArray(n)){var i=n.length;return function(r){var u=e(r);if(null==u)for(var o=0;o<i;o++)t[o].removeAttribute(n);else for(var a=0;a<i;a++)t[a].setAttribute(n,u)}}return function(r){var i=e(r);null==i?t.removeAttribute(n):t.setAttribute(n,i)}}(e,r,s,a):null}function N(n,e,r,i){if(!i||"object"!==t(i))return null;var u=null,o=null;return Array.isArray(i)?o=function(t){if(!t||!t.length)return null;for(var n=0;n<t.length;n++)t[n].e&&(t[n].e=R(t[n].e));return t.sort(C)}(i):(o=i.keys,u=i.data||null),o?V(n,e,r,o,u):null}function z(t,n,e){if(!e)return null;var r=[];for(var i in e)if(e.hasOwnProperty(i)){var u=N(t,n,i,e[i]);u&&r.push(u)}return r.length?r:null}function D(t,n){if(!n.duration||n.duration<0)return null;var e=function(t,n){if(!n)return null;var e=[];if(Array.isArray(n))for(var r=n.length,i=0;i<r;i++){var u=n[i];if(2===u.length){var o=null;if("string"==typeof u[0])o=t.getElementById(u[0]);else if(Array.isArray(u[0])){o=[];for(var a=0;a<u[0].length;a++)if("string"==typeof u[0][a]){var l=t.getElementById(u[0][a]);l&&o.push(l)}o=o.length?1===o.length?o[0]:new I(o):null}if(o){var f=z(t,o,u[1]);f&&(e=e.concat(f))}}}else for(var s in n)if(n.hasOwnProperty(s)){var c=t.getElementById(s);if(c){var h=z(t,c,n[s]);h&&(e=e.concat(h))}}return e.length?e:null}(t,n.elements);return e?function(t,n){var e=arguments.length>2&&void 0!==arguments[2]?arguments[2]:1/0,r=arguments.length>3&&void 0!==arguments[3]?arguments[3]:1,i=arguments.length>4&&void 0!==arguments[4]&&arguments[4],u=arguments.length>5&&void 0!==arguments[5]?arguments[5]:1,o=t.length,a=r>0?n:0;i&&e%2==0&&(a=n-a);var l=null;return function(f,s){var c=f%n,h=1+(f-c)/n;s*=r,i&&h%2==0&&(s=-s);var v=!1;if(h>e)c=a,v=!0,-1===u&&(c=r>0?0:n);else if(s<0&&(c=n-c),c===l)return!1;l=c;for(var d=0;d<o;d++)t[d](c);return v}}(e,n.duration,n.iterations||1/0,n.direction||1,!!n.alternate,n.fill||1):null}function L(t,n){if(B=n,!t||!t.root||!Array.isArray(t.animations))return null;var e=window.document.getElementById(t.root);if(!e)return null;var r=t.animations.map((function(t){return D(e,t)})).filter((function(t){return!!t}));return r.length?{element:e,animations:r,animationSettings:t.animationSettings,options:t.options||void 0}:null}var U=function(){function t(e,r){var i=arguments.length>2&&void 0!==arguments[2]?arguments[2]:{};n(this,t),this._id=0,this._running=!1,this._rollingBack=!1,this._animations=e,this.duration=r.duration,this.alternate=r.alternate,this.fill=r.fill,this.iterations=r.iterations,this.direction=i.direction||1,this.speed=i.speed||1,this.fps=i.fps||100,this.offset=i.offset||0,this.rollbackStartOffset=0}return r(t,[{key:"_rollback",value:function(){var t=this,n=1/0,e=null;this.rollbackStartOffset=this.offset,this._rollingBack||(this._rollingBack=!0,this._running=!0);this._id=window.requestAnimationFrame((function r(i){if(t._rollingBack){null==e&&(e=i);var u=i-e,o=t.rollbackStartOffset-u,a=Math.round(o*t.speed);if(a>t.duration&&n!=1/0){var l=!!t.alternate&&a/t.duration%2>1,f=a%t.duration;a=(f+=l?t.duration:0)||t.duration}var s=t.fps?1e3/t.fps:0,c=Math.max(0,a);if(c<n-s){t.offset=c,n=c;for(var h=t._animations,v=h.length,d=0;d<v;d++)h[d](c,t.direction)}var y=!1;if(t.iterations>0&&-1===t.fill){var g=t.iterations*t.duration,p=g==a;a=p?0:a,t.offset=p?0:t.offset,y=a>g}a>0&&t.offset>=a&&!y?t._id=window.requestAnimationFrame(r):t.stop()}}))}},{key:"_start",value:function(){var t=this,n=arguments.length>0&&void 0!==arguments[0]?arguments[0]:0,e=-1/0,r=null,i={},u=function u(o){t._running=!0,null==r&&(r=o);var a=Math.round((o-r+n)*t.speed),l=t.fps?1e3/t.fps:0;if(a>e+l&&!t._rollingBack){t.offset=a,e=a;for(var f=t._animations,s=f.length,c=0,h=0;h<s;h++)i[h]?c++:(i[h]=f[h](a,t.direction),i[h]&&c++);if(c===s)return void t._stop()}t._id=window.requestAnimationFrame(u)};this._id=window.requestAnimationFrame(u)}},{key:"_stop",value:function(){this._id&&window.cancelAnimationFrame(this._id),this._running=!1,this._rollingBack=!1}},{key:"play",value:function(){!this._rollingBack&&this._running||(this._rollingBack=!1,this.rollbackStartOffset>this.duration&&(this.offset=this.rollbackStartOffset-(this.rollbackStartOffset-this.offset)%this.duration,this.rollbackStartOffset=0),this._start(this.offset))}},{key:"stop",value:function(){this._stop(),this.offset=0,this.rollbackStartOffset=0;var t=this.direction,n=this._animations;window.requestAnimationFrame((function(){for(var e=0;e<n.length;e++)n[e](0,t)}))}},{key:"reachedToEnd",value:function(){return this.iterations>0&&this.offset>=this.iterations*this.duration}},{key:"restart",value:function(){this._stop(),this.offset=0,this._start()}},{key:"pause",value:function(){this._stop()}},{key:"reverse",value:function(){this.direction=-this.direction}}],[{key:"build",value:function(n,e){return(n=L(n,e))?{el:n.element,options:n.options||{},player:new t(n.animations,n.animationSettings,n.options)}:null}}]),t}();!function(){for(var t=0,n=["ms","moz","webkit","o"],e=0;e<n.length&&!window.requestAnimationFrame;++e)window.requestAnimationFrame=window[n[e]+"RequestAnimationFrame"],window.cancelAnimationFrame=window[n[e]+"CancelAnimationFrame"]||window[n[e]+"CancelRequestAnimationFrame"];window.requestAnimationFrame||(window.requestAnimationFrame=function(n){var e=Date.now(),r=Math.max(0,16-(e-t)),i=window.setTimeout((function(){n(e+r)}),r);return t=e+r,i},window.cancelAnimationFrame=window.clearTimeout)}();var W=function(t,n){var e=!1,r=null;return function(i){e&&clearTimeout(e),e=setTimeout((function(){return function(){for(var i=0,u=window.innerHeight,o=0,a=window.innerWidth,l=t.parentNode;l instanceof Element;){var f=window.getComputedStyle(l);if("visible"!==f.overflowY||"visible"!==f.overflowX){var s=l.getBoundingClientRect();"visible"!==f.overflowY&&(i=Math.max(i,s.top),u=Math.min(u,s.bottom)),"visible"!==f.overflowX&&(o=Math.max(o,s.left),a=Math.min(a,s.right))}if(l===l.parentNode)break;l=l.parentNode}e=!1;var c=t.getBoundingClientRect(),h=Math.min(c.height,Math.max(0,i-c.top)),v=Math.min(c.height,Math.max(0,c.bottom-u)),d=Math.min(c.width,Math.max(0,o-c.left)),y=Math.min(c.width,Math.max(0,c.right-a)),g=(c.height-h-v)/c.height,p=(c.width-d-y)/c.width,m=Math.round(g*p*100);null!==r&&r===m||(r=m,n(m))}()}),100)}},Y=function(){function t(e,r,i){n(this,t),r=Math.max(1,r||1),r=Math.min(r,100),this.el=e,this.onTresholdChange=i&&i.call?i:function(){},this.tresholdPercent=r||1,this.currentVisibility=null,this.visibilityCalculator=W(e,this.onVisibilityUpdate.bind(this)),this.bindScrollWatchers(),this.visibilityCalculator()}return r(t,[{key:"bindScrollWatchers",value:function(){for(var t=this.el.parentNode;t&&(t.addEventListener("scroll",this.visibilityCalculator),t!==t.parentNode&&t!==document);)t=t.parentNode}},{key:"onVisibilityUpdate",value:function(t){var n=this.currentVisibility>=this.tresholdPercent,e=t>=this.tresholdPercent;if(null===this.currentVisibility||n!==e)return this.currentVisibility=t,void this.onTresholdChange(e);this.currentVisibility=t}}]),t}(),G=/\.0+$/g;function H(t){return Number.isInteger(t)?t+"":t.toFixed(6).replace(G,"")}function X(t){var n=arguments.length>1&&void 0!==arguments[1]?arguments[1]:" ";return t&&t.length?t.map(H).join(n):""}function $(t){return H(t.x)+","+H(t.y)}function Q(t){return t?null==t.a||t.a>=1?"rgb("+t.r+","+t.g+","+t.b+")":"rgba("+t.r+","+t.g+","+t.b+","+t.a+")":"transparent"}var Z={f:null,i:k,u:function(t,n){return function(e){var r=n(e);t.setAttribute("rx",H(r.x)),t.setAttribute("ry",H(r.y))}}},J={f:null,i:function(t,n,e){return 0===t?n:1===t?e:{width:w(t,n.width,e.width),height:w(t,n.height,e.height)}},u:function(t,n){return function(e){var r=n(e);t.setAttribute("width",H(r.width)),t.setAttribute("height",H(r.height))}}},K=Math.sin,tt=Math.cos,nt=Math.acos,et=Math.asin,rt=Math.tan,it=Math.atan2,ut=Math.PI/180,ot=180/Math.PI,at=Math.sqrt,lt=function(){function t(){var e=arguments.length>0&&void 0!==arguments[0]?arguments[0]:1,r=arguments.length>1&&void 0!==arguments[1]?arguments[1]:0,i=arguments.length>2&&void 0!==arguments[2]?arguments[2]:0,u=arguments.length>3&&void 0!==arguments[3]?arguments[3]:1,o=arguments.length>4&&void 0!==arguments[4]?arguments[4]:0,a=arguments.length>5&&void 0!==arguments[5]?arguments[5]:0;n(this,t),this.m=[e,r,i,u,o,a],this.i=null,this.w=null,this.s=null}return r(t,[{key:"point",value:function(t,n){var e=this.m;return{x:e[0]*t+e[2]*n+e[4],y:e[1]*t+e[3]*n+e[5]}}},{key:"translateSelf",value:function(){var t=arguments.length>0&&void 0!==arguments[0]?arguments[0]:0,n=arguments.length>1&&void 0!==arguments[1]?arguments[1]:0;if(!t&&!n)return this;var e=this.m;return e[4]+=e[0]*t+e[2]*n,e[5]+=e[1]*t+e[3]*n,this.w=this.s=this.i=null,this}},{key:"rotateSelf",value:function(){var t=arguments.length>0&&void 0!==arguments[0]?arguments[0]:0;if(t%=360){var n=K(t*=ut),e=tt(t),r=this.m,i=r[0],u=r[1];r[0]=i*e+r[2]*n,r[1]=u*e+r[3]*n,r[2]=r[2]*e-i*n,r[3]=r[3]*e-u*n,this.w=this.s=this.i=null}return this}},{key:"scaleSelf",value:function(){var t=arguments.length>0&&void 0!==arguments[0]?arguments[0]:1,n=arguments.length>1&&void 0!==arguments[1]?arguments[1]:1;if(1!==t||1!==n){var e=this.m;e[0]*=t,e[1]*=t,e[2]*=n,e[3]*=n,this.w=this.s=this.i=null}return this}},{key:"skewSelf",value:function(t,n){if(n%=360,(t%=360)||n){var e=this.m,r=e[0],i=e[1],u=e[2],o=e[3];t&&(t=rt(t*ut),e[2]+=r*t,e[3]+=i*t),n&&(n=rt(n*ut),e[0]+=u*n,e[1]+=o*n),this.w=this.s=this.i=null}return this}},{key:"resetSelf",value:function(){var t=arguments.length>0&&void 0!==arguments[0]?arguments[0]:1,n=arguments.length>1&&void 0!==arguments[1]?arguments[1]:0,e=arguments.length>2&&void 0!==arguments[2]?arguments[2]:0,r=arguments.length>3&&void 0!==arguments[3]?arguments[3]:1,i=arguments.length>4&&void 0!==arguments[4]?arguments[4]:0,u=arguments.length>5&&void 0!==arguments[5]?arguments[5]:0,o=this.m;return o[0]=t,o[1]=n,o[2]=e,o[3]=r,o[4]=i,o[5]=u,this.w=this.s=this.i=null,this}},{key:"recomposeSelf",value:function(){var t=arguments.length>0&&void 0!==arguments[0]?arguments[0]:null,n=arguments.length>1&&void 0!==arguments[1]?arguments[1]:null,e=arguments.length>2&&void 0!==arguments[2]?arguments[2]:null,r=arguments.length>3&&void 0!==arguments[3]?arguments[3]:null,i=arguments.length>4&&void 0!==arguments[4]?arguments[4]:null;return this.isIdentity||this.resetSelf(),t&&(t.x||t.y)&&this.translateSelf(t.x,t.y),n&&this.rotateSelf(n),e&&(e.x&&this.skewSelf(e.x,0),e.y&&this.skewSelf(0,e.y)),!r||1===r.x&&1===r.y||this.scaleSelf(r.x,r.y),i&&(i.x||i.y)&&this.translateSelf(i.x,i.y),this}},{key:"decompose",value:function(){var t=arguments.length>0&&void 0!==arguments[0]?arguments[0]:0,n=arguments.length>1&&void 0!==arguments[1]?arguments[1]:0,e=this.m,r=e[0]*e[0]+e[1]*e[1],i=[[e[0],e[1]],[e[2],e[3]]],u=at(r);if(0===u)return{origin:{x:e[4],y:e[5]},translate:{x:t,y:n},scale:{x:0,y:0},skew:{x:0,y:0},rotate:0};i[0][0]/=u,i[0][1]/=u;var o=e[0]*e[3]-e[1]*e[2]<0;o&&(u=-u);var a=i[0][0]*i[1][0]+i[0][1]*i[1][1];i[1][0]-=i[0][0]*a,i[1][1]-=i[0][1]*a;var l=at(i[1][0]*i[1][0]+i[1][1]*i[1][1]);if(0===l)return{origin:{x:e[4],y:e[5]},translate:{x:t,y:n},scale:{x:u,y:0},skew:{x:0,y:0},rotate:0};i[1][0]/=l,i[1][1]/=l,a/=l;var f=0;return i[1][1]<0?(f=nt(i[1][1])*ot,i[0][1]<0&&(f=360-f)):f=et(i[0][1])*ot,o&&(f=-f),a=it(a,at(i[0][0]*i[0][0]+i[0][1]*i[0][1]))*ot,{origin:{x:e[4],y:e[5]},translate:{x:t,y:n},scale:{x:u,y:l},skew:{x:a,y:0},rotate:f}}},{key:"toString",value:function(){return null===this.s&&(this.s="matrix("+this.m.map(st).join(" ")+")"),this.s}},{key:"determinant",get:function(){var t=this.m;return t[0]*t[3]-t[1]*t[2]}},{key:"isIdentity",get:function(){if(null===this.i){var t=this.m;this.i=1===t[0]&&0===t[1]&&0===t[2]&&1===t[3]&&0===t[4]&&0===t[5]}return this.i}}]),t}(),ft=/\.0+$/;function st(t){return Number.isInteger(t)?t:t.toFixed(14).replace(ft,"")}Object.freeze({M:2,L:2,Z:0,H:1,V:1,C:6,Q:4,T:2,S:4,A:7});function ct(t,n,e){return t+(n-t)*e}function ht(t,n,e){var r=arguments.length>3&&void 0!==arguments[3]&&arguments[3],i={x:ct(t.x,n.x,e),y:ct(t.y,n.y,e)};return r&&(i.a=vt(t,n)),i}function vt(t,n){return Math.atan2(n.y-t.y,n.x-t.x)}function dt(t,n,e,r){var i=1-r;return i*i*t+2*i*r*n+r*r*e}function yt(t,n,e,r){return 2*(1-r)*(n-t)+2*r*(e-n)}function gt(t,n,e,r){var i=arguments.length>4&&void 0!==arguments[4]&&arguments[4],u={x:dt(t.x,n.x,e.x,r),y:dt(t.y,n.y,e.y,r)};return i&&(u.a=pt(t,n,e,r)),u}function pt(t,n,e,r){return Math.atan2(yt(t.y,n.y,e.y,r),yt(t.x,n.x,e.x,r))}function mt(t,n,e,r,i){var u=i*i;return i*u*(r-t+3*(n-e))+3*u*(t+e-2*n)+3*i*(n-t)+t}function bt(t,n,e,r,i){var u=1-i;return 3*(u*u*(n-t)+2*u*i*(e-n)+i*i*(r-e))}function wt(t,n,e,r,i){var u=arguments.length>5&&void 0!==arguments[5]&&arguments[5],o={x:mt(t.x,n.x,e.x,r.x,i),y:mt(t.y,n.y,e.y,r.y,i)};return u&&(o.a=xt(t,n,e,r,i)),o}function xt(t,n,e,r,i){return Math.atan2(bt(t.y,n.y,e.y,r.y,i),bt(t.x,n.x,e.x,r.x,i))}function kt(t,n,e){var r=arguments.length>3&&void 0!==arguments[3]&&arguments[3];if(_t(n)){if(St(e))return gt(n,e.start,e,t,r)}else if(_t(e)){if(n.end)return gt(n,n.end,e,t,r)}else{if(n.end)return e.start?wt(n,n.end,e.start,e,t,r):gt(n,n.end,e,t,r);if(e.start)return gt(n,e.start,e,t,r)}return ht(n,e,t,r)}function At(t,n,e){var r=kt(t,n,e,!0);return r.a=function(t){var n=arguments.length>1&&void 0!==arguments[1]&&arguments[1];return n?t+Math.PI:t}(r.a)/p,r}function _t(t){return!t.type||"corner"===t.type}function St(t){return null!=t.start&&!_t(t)}var Mt=new lt;var Ot={f:function(t){return t?t.join(" "):""},i:function(n,e,r){if(0===n)return e;if(1===n)return r;var i=e.length;if(i!==r.length)return m(n,e,r);for(var u,o=new Array(i),a=0;a<i;a++){if((u=t(e[a]))!==t(r[a]))return m(n,e,r);if("number"===u)o[a]=b(n,e[a],r[a]);else{if(e[a]!==r[a])return m(n,e,r);o[a]=e[a]}}return o}},Et={f:null,i:M,u:function(t,n){return function(e){var r=n(e);t.setAttribute("x1",H(r[0])),t.setAttribute("y1",H(r[1])),t.setAttribute("x2",H(r[2])),t.setAttribute("y2",H(r[3]))}}},Bt={f:H,i:b},It={f:H,i:function(t,n,e){var r=b(t,n,e);return r<=0?0:r>=1?1:r}},jt={f:X,i:function(t,n,e){var r,i,u,o=n.length,a=e.length;if(o!==a)if(0===o)n=O(o=a,0);else if(0===a)a=o,e=O(o,0);else{var l=(u=(r=o)*(i=a)/function(t,n){for(var e;n;)e=n,n=t%n,t=e;return t||1}(r,i))<0?-u:u;n=E(n,Math.floor(l/o)),e=E(e,Math.floor(l/a)),o=a=l}for(var f=[],s=0;s<o;s++)f.push(g(w(t,n[s],e[s]),6));return f}};function Pt(t,n,e,r,i,u,o,a){return n=function(t,n,e){for(var r,i,u,o=t.length-1,a={},l=0;l<=o;l++)(r=t[l]).e&&(r.e=n(r.e)),r.v&&"g"===(i=r.v).t&&i.r&&(u=e.getElementById(i.r))&&(a[i.r]=u.querySelectorAll("stop"));return a}(t,r,a),function(r){var i,u=e(r,t,Ft);return u?"c"===u.t?Q(u.v):"g"===u.t?(n[u.r]&&function(t,n){for(var e=0,r=t.length;e<r;e++)t[e].setAttribute("stop-color",Q(n[e]))}(n[u.r],u.v),(i=u.r)?"url(#"+i+")":"none"):"none":"none"}}function Ft(t,n,e){if(0===t)return n;if(1===t)return e;if(n&&e){var r=n.t;if(r===e.t)switch(n.t){case"c":return{t:r,v:_(t,n.v,e.v)};case"g":if(n.r===e.r)return{t:r,v:S(t,n.v,e.v),r:n.r}}}return m(t,n,e)}var Rt={blur:k,brightness:w,contrast:w,"drop-shadow":function(t,n,e){return 0===t?n:1===t?e:{blur:k(t,n.blur,e.blur),offset:x(t,n.offset,e.offset),color:_(t,n.color,e.color)}},grayscale:w,"hue-rotate":b,invert:w,opacity:w,saturate:w,sepia:w};function Tt(t,n,e){if(0===t)return n;if(1===t)return e;var r=n.length;if(r!==e.length)return m(t,n,e);for(var i,u=[],o=0;o<r;o++){if(n[o].type!==e[o].type)return n;if(!(i=Rt[n[o].type]))return m(t,n,e);u.push({type:n.type,value:i(t,n[o].value,e[o].value)})}return u}var qt={blur:function(t){return t?function(n){t.setAttribute("stdDeviation",$(n))}:null},brightness:function(t,n,e){return(t=Vt(e,n))?function(n){n=H(n),t.map((function(t){return t.setAttribute("slope",n)}))}:null},contrast:function(t,n,e){return(t=Vt(e,n))?function(n){var e=H((1-n)/2);n=H(n),t.map((function(t){t.setAttribute("slope",n),t.setAttribute("intercept",e)}))}:null},"drop-shadow":function(t,n,e){var r=e.getElementById(n+"-blur");if(!r)return null;var i=e.getElementById(n+"-offset");if(!i)return null;var u=e.getElementById(n+"-flood");return u?function(t){r.setAttribute("stdDeviation",$(t.blur)),i.setAttribute("dx",H(t.offset.x)),i.setAttribute("dy",H(t.offset.y)),u.setAttribute("flood-color",Q(t.color))}:null},grayscale:function(t){return t?function(n){t.setAttribute("values",X(function(t){return[.2126+.7874*(t=1-t),.7152-.7152*t,.0722-.0722*t,0,0,.2126-.2126*t,.7152+.2848*t,.0722-.0722*t,0,0,.2126-.2126*t,.7152-.7152*t,.0722+.9278*t,0,0,0,0,0,1,0]}(n)))}:null},"hue-rotate":function(t){return t?function(n){return t.setAttribute("values",H(n))}:null},invert:function(t,n,e){return(t=Vt(e,n))?function(n){n=H(n)+" "+H(1-n),t.map((function(t){return t.setAttribute("tableValues",n)}))}:null},opacity:function(t,n,e){return(t=e.getElementById(n+"-A"))?function(n){return t.setAttribute("tableValues","0 "+H(n))}:null},saturate:function(t){return t?function(n){return t.setAttribute("values",H(n))}:null},sepia:function(t){return t?function(n){return t.setAttribute("values",X(function(t){return[.393+.607*(t=1-t),.769-.769*t,.189-.189*t,0,0,.349-.349*t,.686+.314*t,.168-.168*t,0,0,.272-.272*t,.534-.534*t,.131+.869*t,0,0,0,0,0,1,0]}(n)))}:null}};var Ct=["R","G","B"];function Vt(t,n){var e=Ct.map((function(e){return t.getElementById(n+"-"+e)||null}));return-1!==e.indexOf(null)?null:e}var Nt={fill:Pt,"fill-opacity":It,stroke:Pt,"stroke-opacity":It,"stroke-width":Bt,"stroke-dashoffset":{f:H,i:b},"stroke-dasharray":jt,opacity:It,transform:function(n,e,r,i){if(!(n=function(n,e){if(!n||"object"!==t(n))return null;var r=!1;for(var i in n)n.hasOwnProperty(i)&&(n[i]&&n[i].length?(n[i].forEach((function(t){t.e&&(t.e=e(t.e))})),r=!0):delete n[i]);return r?n:null}(n,i)))return null;var u=function(t,i,u){var o=arguments.length>3&&void 0!==arguments[3]?arguments[3]:null;return n[t]?r(i,n[t],u):e&&e[t]?e[t]:o};return e&&e.a&&n.o?function(t){var e=r(t,n.o,At);return Mt.recomposeSelf(e,u("r",t,b,0)+e.a,u("k",t,x),u("s",t,x),u("t",t,x)).toString()}:function(t){return Mt.recomposeSelf(u("o",t,kt,null),u("r",t,b,0),u("k",t,x),u("s",t,x),u("t",t,x)).toString()}},"#filter":function(t,n,e,r,i,u,o,a){if(!n.items||!t||!t.length)return null;var l=function(t,n){var e=(t=t.map((function(t){return t&&qt[t[0]]?(n.getElementById(t[1]),qt[t[0]](n.getElementById(t[1]),t[1],n)):null}))).length;return function(n){for(var r=0;r<e;r++)t[r]&&t[r](n[r].value)}}(n.items,a);return l?(t=function(t,n){return t.map((function(t){return t.e=n(t.e),t}))}(t,r),function(n){l(e(n,t,Tt))}):null},"#line":Et,points:{f:X,i:M},d:Ot,r:Bt,"#size":J,"#radius":Z,_:function(t,n){if(Array.isArray(t))for(var e=0;e<t.length;e++)this[t[e]]=n;else this[t]=n}};return function(t){!function(t,n){if("function"!=typeof n&&null!==n)throw new TypeError("Super expression must either be null or a function");t.prototype=Object.create(n&&n.prototype,{constructor:{value:t,writable:!0,configurable:!0}}),n&&u(t,n)}(o,t);var e=a(o);function o(){return n(this,o),e.apply(this,arguments)}return r(o,null,[{key:"build",value:function(t){var n=l(i(o),"build",this).call(this,t,Nt),e=n.el,r=n.options,u=n.player;return function(t,n,e){if("click"===e.start){return void n.addEventListener("click",(function(){switch(e.click){case"freeze":return!t._running&&t.reachedToEnd()&&(t.offset=0),t._running?t.pause():t.play();case"restart":return t.offset>0?t.restart():t.play();case"reverse":var n=!t._rollingBack&&t._running,r=t.reachedToEnd();return n||r&&1===t.fill?(t.pause(),r&&(t.offset=t.duration-1),t._rollback()):r?t.restart():t.play();case"none":default:return!t._running&&t.offset?t.restart():t.play()}}))}if("hover"===e.start)return n.addEventListener("mouseenter",(function(){return t.reachedToEnd()?t.restart():t.play()})),void n.addEventListener("mouseleave",(function(){switch(e.hover){case"freeze":return t.pause();case"reset":return t.stop();case"reverse":return t.pause(),t._rollback();case"none":default:return}}));if("scroll"===e.start)return void new Y(n,e.scroll||25,(function(n){n?t.reachedToEnd()?t.restart():t.play():t.pause()}));t.play()}(u,e,r),u}}]),o}(U)}));
__SVGATOR_PLAYER__.build({"root":"e1rh41gmffsp1","animations":[{"duration":2750,"direction":1,"iterations":2,"fill":1,"alternate":false,"elements":{"e1rh41gmffsp2":{"transform":{"data":{"o":{"x":205.17048782021493,"y":191.04631413732227,"type":"corner"},"t":{"x":-203.62776947021484,"y":-189.94792938232422}},"keys":{"r":[{"t":0,"v":3},{"t":1200,"v":-3},{"t":2430,"v":3}]}}},"e1rh41gmffsp8":{"transform":{"data":{"o":{"x":203.63414001464844,"y":176.90497589111328,"type":"corner"},"t":{"x":-203.63414001464844,"y":-176.90497589111328}},"keys":{"r":[{"t":1400,"v":0},{"t":2000,"v":-3}]}}},"e1rh41gmffsp13":{"transform":{"data":{"t":{"x":-202.98500061035156,"y":-171.8833465576172}},"keys":{"o":[{"t":900,"v":{"x":202.98500061035156,"y":171.8833465576172,"type":"corner"}},{"t":2100,"v":{"x":206.13396293035154,"y":169.8716552776172,"type":"corner"}}]}}},"e1rh41gmffsp18":{"transform":{"data":{"o":{"x":263.93445587158203,"y":280.46195220947266,"type":"corner"},"t":{"x":-263.93445587158203,"y":-280.46195220947266}},"keys":{"r":[{"t":0,"v":0},{"t":600,"v":7}]}}},"e1rh41gmffsp20":{"transform":{"data":{"o":{"x":299.95802307128906,"y":316.7969970703125,"type":"corner"},"t":{"x":-299.95802307128906,"y":-316.7969970703125}},"keys":{"r":[{"t":900,"v":0},{"t":1500,"v":8}]}}},"e1rh41gmffsp22":{"transform":{"data":{"o":{"x":147.2043571472168,"y":281.5298385620117,"type":"corner"},"t":{"x":-147.2043571472168,"y":-281.5298385620117}},"keys":{"r":[{"t":200,"v":-5},{"t":800,"v":-8}]}}},"e1rh41gmffsp29":{"transform":{"data":{"o":{"x":253.5422821044922,"y":458.0691680908203,"type":"corner"},"t":{"x":-253.5422821044922,"y":-458.0691680908203}},"keys":{"r":[{"t":700,"v":0},{"t":1500,"v":4}]}}},"e1rh41gmffsp38":{"transform":{"data":{"o":{"x":173.57861328125,"y":458.0941619873047,"type":"corner"},"t":{"x":-173.57861328125,"y":-458.0941619873047}},"keys":{"r":[{"t":400,"v":0},{"t":1400,"v":-4}]}}},"e1rh41gmffsp40":{"transform":{"data":{"o":{"x":213.94937133789062,"y":377.7882385253906,"type":"corner"},"t":{"x":-213.94937133789062,"y":-377.7882385253906}},"keys":{"r":[{"t":1900,"v":0},{"t":2600,"v":2}]}}},"e1rh41gmffsp103":{"transform":{"data":{"o":{"x":418.3749694824219,"y":159.990234375,"type":"corner"},"t":{"x":-418.3749694824219,"y":-159.990234375}},"keys":{"r":[{"t":0,"v":0},{"t":1000,"v":-4}]}}},"e1rh41gmffsp111":{"transform":{"data":{"r":-4,"t":{"x":-419.1300048828125,"y":-157.84000396728516}},"keys":{"o":[{"t":300,"v":{"x":419.1300048828125,"y":157.84000396728516,"type":"corner"}},{"t":900,"v":{"x":414.83761244995446,"y":156.45244643857674,"type":"corner"}}]}}},"e1rh41gmffsp117":{"transform":{"data":{"o":{"x":452.757972835,"y":222.86998204,"type":"corner"},"t":{"x":-447.10017354,"y":-222.56473953500006}},"keys":{"r":[{"t":0,"v":0},{"t":1000,"v":17}]}}},"e1rh41gmffsp121":{"transform":{"data":{"o":{"x":392.74891817,"y":225.095,"type":"corner"},"t":{"x":-392.74891817,"y":-225.095}},"keys":{"r":[{"t":500,"v":0},{"t":1600,"v":-9}]}}},"e1rh41gmffsp147":{"transform":{"data":{"o":{"x":422.33531188964844,"y":372.2311096191406,"type":"corner"},"t":{"x":-422.33531188964844,"y":-372.2311096191406}},"keys":{"r":[{"t":1100,"v":-4},{"t":1800,"v":-3}]}}}}}],"options":{"start":"scroll","hover":"freeze","click":"freeze","scroll":25,"exportedIds":"unique","title":"adamandeve"},"animationSettings":{"duration":2750,"direction":1,"iterations":2,"fill":1,"alternate":false}})]]></script></svg>