<svg id="ewkgv34oeygi1" xmlns="http://www.w3.org/2000/svg" xmlns:xlink="http://www.w3.org/1999/xlink" viewBox="0 0 650 650" shape-rendering="geometricPrecision" text-rendering="geometricPrecision"><g id="ewkgv34oeygi2" transform="matrix(1 0 0 1 655.59440599999994 6.99300700000003)"><path id="ewkgv34oeygi3" d="M261,181.960000C261.110000,180.920000,261.190000,179.870000,261.240000,178.810000C262.720000,147.420000,238.460000,120.770000,207.070000,119.290000C182.400000,118.130000,160.680000,132.860000,151.780000,154.450000C151.750000,154.520000,119.980000,232.630000,57.450000,229.550000C-5.110000,226.470000,-5.170000,220.190000,25.760000,275.020000C54.990000,326.850000,150.380000,379,220.820000,311.670000C260.220000,274.010000,261.940000,182.200000,261.940000,182.200000L261,181.960000ZM218,196.200000C211.330000,196.200000,205.920000,190.790000,205.920000,184.120000C205.920000,177.450000,211.330000,172.040000,218,172.040000C224.670000,172.040000,230.080000,177.450000,230.080000,184.120000C230.080000,190.790000,224.670000,196.200000,218,196.200000Z" fill="rgb(5,99,85)" stroke="none" stroke-width="1"/><circle id="ewkgv34oeygi4" r="12.080000" transform="matrix(1 0 0 1 218 184.12000000000000)" fill="rgb(174,211,95)" stroke="none" stroke-width="1"/></g><path id="ewkgv34oeygi5" d="M152.730000,232.050000C153.650000,231.660000,154.490000,231.130000,155.260000,230.490000C162.280000,224.630000,201.790000,195.200000,216.720000,261.290000C231.450000,326.510000,114.570000,314.020000,75.390000,281.380000C69.520000,276.490000,70.790000,267.150000,77.820000,264.140000L152.730000,232.050000Z" transform="matrix(0.95979731319260 0.28069399278978 -0.28069399278978 0.95979731319260 735.37915119535137 -23.06721635045636)" fill="rgb(0,162,139)" stroke="none" stroke-width="1"/><path id="ewkgv34oeygi6" d="M253.600000,186.630000L294.840000,169.380000C298.710000,167.760000,298.910000,163.960000,295.170000,162.850000L254.300000,150.660000C250.810000,149.620000,246.500000,151.750000,246.460000,154.530000L246.090000,183.970000C246.060000,186.670000,250.090000,188.100000,253.600000,186.630000Z" transform="matrix(1 0 0 1 655.59440599999994 6.99300700000003)" fill="rgb(243,176,199)" stroke="none" stroke-width="1"/><path id="ewkgv34oeygi7" d="M261.550000,216.270000L296.760000,188.720000C300.070000,186.130000,299.250000,182.420000,295.350000,182.330000L252.710000,181.390000C249.070000,181.310000,245.470000,184.500000,246.180000,187.200000L253.610000,215.690000C254.290000,218.300000,258.560000,218.610000,261.550000,216.270000Z" transform="matrix(1 0 0 1 655.59440599999994 6.99300700000003)" fill="rgb(237,102,35)" stroke="none" stroke-width="1"/><g id="ewkgv34oeygi8" transform="matrix(1 0 0 1 676.07272993585775 21.85431085062680)"><path id="ewkgv34oeygi9" d="M41.410000,393.490000C36.640000,393.080000,32.070000,396.800000,32.070000,402.080000L32.070000,402.870000C32.070000,397.720000,36.260000,393.510000,41.410000,393.490000Z" fill="rgb(243,176,199)" stroke="none" stroke-width="1"/><path id="ewkgv34oeygi10" d="M32.070000,514.310000L32.070000,515.070000C32.070000,520.210000,36.430000,523.930000,41.140000,523.680000C36.120000,523.510000,32.070000,519.370000,32.070000,514.310000Z" fill="rgb(243,176,199)" stroke="none" stroke-width="1"/><path id="ewkgv34oeygi11" d="M155.960000,456.270000L48.230000,396.410000C49.830000,398.100000,50.830000,400.370000,50.830000,402.860000L50.830000,514.310000C50.830000,517.120000,49.570000,519.640000,47.600000,521.360000L155.390000,471.610000C161.790000,468.660000,162.120000,459.690000,155.960000,456.270000ZM95.370000,487.170000L71.140000,495.580000C68.250000,496.580000,65.170000,494.700000,64.300000,491.400000L64.300000,491.400000C63.420000,488.100000,65.070000,484.580000,67.960000,483.580000L92.190000,475.170000C95.080000,474.170000,98.160000,476.050000,99.030000,479.350000C99.900000,482.640000,98.260000,486.160000,95.370000,487.170000ZM93.870000,468.560000L68.620000,466.360000C65.610000,466.100000,63.340000,463.070000,63.570000,459.630000C63.800000,456.190000,66.450000,453.590000,69.460000,453.850000L94.710000,456.050000C97.720000,456.310000,99.990000,459.340000,99.760000,462.780000C99.530000,466.220000,96.880000,468.820000,93.870000,468.560000ZM100.180000,443.140000C99.270000,446.430000,96.170000,448.260000,93.290000,447.220000L69.150000,438.460000C66.270000,437.420000,64.670000,433.870000,65.580000,430.580000C66.490000,427.290000,69.590000,425.460000,72.470000,426.500000L96.610000,435.260000C99.480000,436.310000,101.090000,439.850000,100.180000,443.140000Z" fill="rgb(243,176,199)" stroke="none" stroke-width="1"/><path id="ewkgv34oeygi12" d="M41.140000,523.680000C41.240000,523.680000,41.340000,523.700000,41.450000,523.700000L41.450000,523.700000C43.800000,523.700000,45.950000,522.820000,47.600000,521.370000L44.290000,522.900000C43.250000,523.370000,42.190000,523.620000,41.140000,523.680000Z" fill="rgb(237,102,35)" stroke="none" stroke-width="1"/><path id="ewkgv34oeygi13" d="M48.230000,396.410000C46.520000,394.610000,44.110000,393.480000,41.450000,393.480000L41.450000,393.480000C41.440000,393.480000,41.420000,393.480000,41.410000,393.480000C42.570000,393.580000,43.750000,393.910000,44.870000,394.540000L48.230000,396.410000Z" fill="rgb(237,102,35)" stroke="none" stroke-width="1"/><path id="ewkgv34oeygi14" d="M50.820000,514.310000L50.820000,402.870000C50.820000,400.370000,49.830000,398.100000,48.220000,396.420000L44.860000,394.550000C43.740000,393.930000,42.560000,393.590000,41.400000,393.490000C36.260000,393.510000,32.060000,397.720000,32.060000,402.870000L32.060000,514.320000C32.060000,519.370000,36.110000,523.520000,41.130000,523.680000C42.180000,523.620000,43.240000,523.370000,44.280000,522.890000L47.590000,521.360000C49.570000,519.640000,50.820000,517.120000,50.820000,514.310000Z" fill="rgb(237,102,35)" stroke="none" stroke-width="1"/><path id="ewkgv34oeygi15" d="M94.700000,456.050000L69.450000,453.850000C66.440000,453.590000,63.790000,456.190000,63.560000,459.630000C63.330000,463.070000,65.610000,466.100000,68.610000,466.360000L93.860000,468.560000C96.870000,468.820000,99.520000,466.220000,99.750000,462.780000C99.990000,459.340000,97.710000,456.310000,94.700000,456.050000Z" fill="rgb(0,162,139)" stroke="none" stroke-width="1"/><path id="ewkgv34oeygi16" d="M92.180000,475.160000L67.950000,483.570000C65.060000,484.570000,63.420000,488.090000,64.290000,491.390000L64.290000,491.390000C65.170000,494.690000,68.250000,496.570000,71.130000,495.570000L95.360000,487.160000C98.250000,486.160000,99.890000,482.640000,99.020000,479.340000C98.150000,476.040000,95.070000,474.160000,92.180000,475.160000Z" fill="rgb(0,162,139)" stroke="none" stroke-width="1"/><path id="ewkgv34oeygi17" d="M96.610000,435.260000L72.470000,426.500000C69.590000,425.460000,66.490000,427.290000,65.580000,430.580000C64.670000,433.870000,66.270000,437.410000,69.150000,438.460000L93.290000,447.220000C96.170000,448.260000,99.270000,446.430000,100.180000,443.140000C101.090000,439.850000,99.480000,436.310000,96.610000,435.260000Z" fill="rgb(0,162,139)" stroke="none" stroke-width="1"/></g><g id="ewkgv34oeygi18" transform="matrix(1 0 0 1 697.26121178937615 9.17994650393013)"><path id="ewkgv34oeygi19" d="M258.140000,419.860000C258.190000,419.250000,258.220000,418.630000,258.220000,418.010000C258.220000,398.220000,230.350000,382.180000,195.970000,382.180000C161.590000,382.180000,133.720000,398.220000,133.720000,418.010000C133.720000,418.370000,133.750000,418.730000,133.770000,419.090000C149.230000,408.430000,169.960000,401.890000,192.770000,401.890000C214.900000,401.890000,240.690000,409.790000,258.140000,419.860000Z" fill="rgb(0,162,139)" stroke="none" stroke-width="1"/><path id="ewkgv34oeygi20" d="M130.200000,510.130000C129.980000,511.350000,129.870000,512.580000,129.870000,513.830000C129.870000,533.620000,157.740000,549.660000,192.120000,549.660000C225.770000,549.660000,253.170000,534.290000,254.310000,515.080000C237.330000,524.020000,216.210000,529.960000,192.780000,529.960000C168.150000,529.950000,145.960000,522.330000,130.200000,510.130000Z" fill="rgb(0,162,139)" stroke="none" stroke-width="1"/><path id="ewkgv34oeygi21" d="M266.860000,425.610000C264.290000,423.650000,261.360000,421.720000,258.140000,419.870000C240.690000,409.800000,214.910000,401.900000,192.770000,401.900000C169.970000,401.900000,149.230000,408.440000,133.770000,419.100000C116.830000,430.790000,106.220000,447.440000,106.220000,465.930000C106.220000,483.080000,115.350000,498.640000,130.190000,510.140000C145.950000,522.340000,168.150000,529.960000,192.760000,529.960000C216.200000,529.960000,237.310000,524.030000,254.290000,515.080000C260.070000,512.030000,265.380000,508.640000,270.130000,505.010000C284.870000,493.740000,297.250000,486.080000,297.250000,465.930000C297.260000,449.950000,287.650000,441.480000,266.860000,425.610000ZM252.450000,478C245.780000,478,240.370000,472.590000,240.370000,465.920000C240.370000,459.250000,245.780000,453.840000,252.450000,453.840000C259.120000,453.840000,264.530000,459.250000,264.530000,465.920000C264.530000,472.590000,259.120000,478,252.450000,478Z" fill="rgb(243,176,199)" stroke="none" stroke-width="1"/><circle id="ewkgv34oeygi22" r="12.080000" transform="matrix(1 0 0 1 252.44999999999999 465.92000000000002)" fill="rgb(5,99,85)" stroke="none" stroke-width="1"/></g><path id="ewkgv34oeygi23" d="M202.790000,440.660000L157.930000,455.630000C153.720000,457.040000,152.850000,462.620000,156.450000,465.230000L195.760000,493.820000C199.120000,496.260000,203.870000,494.210000,204.390000,490.090000L209.940000,446.540000C210.440000,442.540000,206.600000,439.390000,202.790000,440.660000Z" transform="matrix(1 0 0 1 638.39771758499910 25.89245105499850)" fill="rgb(237,102,35)" stroke="none" stroke-width="1"/><g id="ewkgv34oeygi24" transform="matrix(1 0 0 1 655.59440599999971 6.99300700000003)"><path id="ewkgv34oeygi25" d="M456.870000,459.680000C469.440000,459.380000,483.110000,458.610000,498.050000,457.270000C498.050000,457.270000,504.600000,457.460000,514.440000,456.090000C514.250000,456.100000,514.080000,456.120000,513.890000,456.130000C497.810000,457.120000,477.890000,458.870000,456.870000,459.680000Z" fill="rgb(119,56,148)" stroke="none" stroke-width="1"/><path id="ewkgv34oeygi26" d="M320.880000,418.820000C320.750000,418.560000,320.630000,418.310000,320.500000,418.050000C320.620000,418.310000,320.750000,418.560000,320.880000,418.820000Z" fill="rgb(119,56,148)" stroke="none" stroke-width="1"/><path id="ewkgv34oeygi27" d="M640.150000,264.500000C624.820000,264.600000,614.030000,264.560000,605.080000,266.650000C590.290000,270.090000,590.310000,273.580000,587.330000,286.610000C587.330000,286.610000,584.780000,266.970000,568.410000,268.250000C552.050000,269.530000,531.670000,264.710000,534.160000,276.070000C537.490000,291.230000,549.610000,296.990000,569.780000,298.160000C581.390000,298.830000,542.600000,383.860000,542.600000,383.860000C538.420000,362.910000,544.050000,333.870000,539.180000,315.830000C527.580000,272.830000,488.380000,243.030000,443.850000,242.180000C348.840000,240.370000,321.500000,296.010000,315.410000,343.630000C321.850000,342.410000,364.240000,337.160000,400.920000,401.890000C440.730000,472.140000,584.490000,418.010000,584.490000,418.010000L584.490000,418.010000C595.530000,403.070000,603.100000,382.450000,603.210000,354C603.440000,291.640000,610.760000,295.820000,626.520000,293.050000C638.990000,290.870000,651.260000,264.430000,640.150000,264.500000ZM413.520000,394.260000C406.850000,394.260000,401.440000,388.850000,401.440000,382.180000C401.440000,375.510000,406.850000,370.100000,413.520000,370.100000C420.190000,370.100000,425.600000,375.510000,425.600000,382.180000C425.600000,388.850000,420.190000,394.260000,413.520000,394.260000Z" fill="rgb(119,56,148)" stroke="none" stroke-width="1"/><path id="ewkgv34oeygi28" d="M400.910000,401.890000C364.230000,337.160000,321.840000,342.410000,315.400000,343.630000C314.850000,343.730000,314.560000,343.810000,314.560000,343.810000C314.560000,343.810000,306.500000,388.760000,320.500000,418.050000C320.620000,418.310000,320.750000,418.560000,320.880000,418.820000C323.050000,423.200000,325.730000,427.210000,329.020000,430.640000C355.750000,458.500000,409.130000,461.510000,456.870000,459.670000C477.890000,458.860000,497.810000,457.110000,513.890000,456.120000C514.080000,456.110000,514.250000,456.090000,514.440000,456.080000C566.610000,452.640000,584.480000,418.010000,584.480000,418.010000L584.480000,418.010000C584.480000,418.010000,440.720000,472.140000,400.910000,401.890000Z" fill="rgb(179,224,248)" stroke="none" stroke-width="1"/><circle id="ewkgv34oeygi29" r="12.080000" transform="matrix(1 0 0 1 413.51999999999998 382.18000000000001)" fill="rgb(241,208,24)" stroke="none" stroke-width="1"/></g><g id="ewkgv34oeygi30" transform="matrix(1 0 0 1 655.59440599999994 6.99300700000003)"><path id="ewkgv34oeygi31" d="M533.800000,396.740000L443.670000,404.850000C435.410000,405.590000,430.760000,414.710000,435.020000,421.830000L485.020000,505.500000C489.720000,513.360000,501.330000,512.620000,505,504.240000L545.130000,412.460000C548.550000,404.620000,542.320000,395.970000,533.800000,396.740000ZM500.910000,481.310000L483.750000,483.100000C481.710000,483.310000,479.680000,481.550000,479.240000,479.190000C478.810000,476.820000,480.120000,474.710000,482.170000,474.500000L499.330000,472.710000C501.370000,472.500000,503.400000,474.260000,503.840000,476.620000C504.270000,478.980000,502.960000,481.090000,500.910000,481.310000ZM506.950000,460.080000L475.440000,463.370000C471.690000,463.760000,467.960000,460.530000,467.160000,456.190000C466.360000,451.850000,468.780000,447.970000,472.530000,447.580000L504.040000,444.290000C507.790000,443.900000,511.520000,447.130000,512.320000,451.470000C513.130000,455.810000,510.710000,459.690000,506.950000,460.080000ZM513.430000,431.940000L470.060000,436.470000C464.890000,437.010000,459.760000,432.560000,458.660000,426.580000L458.660000,426.580000C457.560000,420.600000,460.890000,415.270000,466.060000,414.730000L509.430000,410.200000C514.600000,409.660000,519.730000,414.110000,520.830000,420.090000C521.930000,426.070000,518.600000,431.400000,513.430000,431.940000Z" fill="rgb(228,52,80)" stroke="none" stroke-width="1"/><path id="ewkgv34oeygi32" d="M509.440000,410.200000L466.070000,414.730000C460.900000,415.270000,457.570000,420.600000,458.670000,426.580000L458.670000,426.580000C459.770000,432.560000,464.900000,437.010000,470.070000,436.470000L513.440000,431.940000C518.610000,431.400000,521.940000,426.070000,520.840000,420.090000C519.730000,414.110000,514.600000,409.660000,509.440000,410.200000Z" fill="rgb(119,56,148)" stroke="none" stroke-width="1"/><path id="ewkgv34oeygi33" d="M504.050000,444.280000L472.540000,447.570000C468.790000,447.960000,466.370000,451.840000,467.170000,456.180000C467.970000,460.520000,471.690000,463.760000,475.450000,463.360000L506.960000,460.070000C510.710000,459.680000,513.130000,455.800000,512.330000,451.460000C511.530000,447.120000,507.800000,443.890000,504.050000,444.280000Z" fill="rgb(119,56,148)" stroke="none" stroke-width="1"/><path id="ewkgv34oeygi34" d="M499.330000,472.710000L482.170000,474.500000C480.130000,474.710000,478.810000,476.820000,479.240000,479.190000C479.670000,481.560000,481.700000,483.320000,483.750000,483.100000L500.910000,481.310000C502.950000,481.100000,504.270000,478.990000,503.840000,476.620000C503.400000,474.250000,501.380000,472.490000,499.330000,472.710000Z" fill="rgb(119,56,148)" stroke="none" stroke-width="1"/></g><script><![CDATA[!function(t,n){"object"==typeof exports&&"undefined"!=typeof module?module.exports=n():"function"==typeof define&&define.amd?define(n):(t=t||self).__SVGATOR_PLAYER__=n()}(this,(function(){"use strict";function t(n){return(t="function"==typeof Symbol&&"symbol"==typeof Symbol.iterator?function(t){return typeof t}:function(t){return t&&"function"==typeof Symbol&&t.constructor===Symbol&&t!==Symbol.prototype?"symbol":typeof t})(n)}function n(t,n){if(!(t instanceof n))throw new TypeError("Cannot call a class as a function")}function e(t,n){for(var e=0;e<n.length;e++){var r=n[e];r.enumerable=r.enumerable||!1,r.configurable=!0,"value"in r&&(r.writable=!0),Object.defineProperty(t,r.key,r)}}function r(t,n,r){return n&&e(t.prototype,n),r&&e(t,r),t}function i(t){return(i=Object.setPrototypeOf?Object.getPrototypeOf:function(t){return t.__proto__||Object.getPrototypeOf(t)})(t)}function u(t,n){return(u=Object.setPrototypeOf||function(t,n){return t.__proto__=n,t})(t,n)}function o(t,n){return!n||"object"!=typeof n&&"function"!=typeof n?function(t){if(void 0===t)throw new ReferenceError("this hasn't been initialised - super() hasn't been called");return t}(t):n}function a(t){var n=function(){if("undefined"==typeof Reflect||!Reflect.construct)return!1;if(Reflect.construct.sham)return!1;if("function"==typeof Proxy)return!0;try{return Date.prototype.toString.call(Reflect.construct(Date,[],(function(){}))),!0}catch(t){return!1}}();return function(){var e,r=i(t);if(n){var u=i(this).constructor;e=Reflect.construct(r,arguments,u)}else e=r.apply(this,arguments);return o(this,e)}}function l(t,n,e){return(l="undefined"!=typeof Reflect&&Reflect.get?Reflect.get:function(t,n,e){var r=function(t,n){for(;!Object.prototype.hasOwnProperty.call(t,n)&&null!==(t=i(t)););return t}(t,n);if(r){var u=Object.getOwnPropertyDescriptor(r,n);return u.get?u.get.call(e):u.value}})(t,n,e||t)}var f=Math.abs;function s(t){return t}function c(t,n,e){var r=1-e;return 3*e*r*(t*r+n*e)+e*e*e}function h(){var t=arguments.length>0&&void 0!==arguments[0]?arguments[0]:0,n=arguments.length>1&&void 0!==arguments[1]?arguments[1]:0,e=arguments.length>2&&void 0!==arguments[2]?arguments[2]:1,r=arguments.length>3&&void 0!==arguments[3]?arguments[3]:1;return t<0||t>1||e<0||e>1?null:f(t-n)<=1e-5&&f(e-r)<=1e-5?s:function(i){if(i<=0)return t>0?i*n/t:0===n&&e>0?i*r/e:0;if(i>=1)return e<1?1+(i-1)*(r-1)/(e-1):1===e&&t<1?1+(i-1)*(n-1)/(t-1):1;for(var u,o=0,a=1;o<a;){var l=c(t,e,u=(o+a)/2);if(f(i-l)<1e-5)break;l<i?o=u:a=u}return c(n,r,u)}}function v(){return 1}function d(t){return 1===t?1:0}function y(){var t=arguments.length>0&&void 0!==arguments[0]?arguments[0]:1,n=arguments.length>1&&void 0!==arguments[1]?arguments[1]:0;if(1===t){if(0===n)return d;if(1===n)return v}var e=1/t;return function(t){return t>=1?1:(t+=n*e)-t%e}}function g(t){var n=arguments.length>1&&void 0!==arguments[1]?arguments[1]:2;if(Number.isInteger(t))return t;var e=Math.pow(10,n);return Math.round(t*e)/e}var p=Math.PI/180;function m(t,n,e){return t>=.5?e:n}function b(t,n,e){return 0===t||n===e?n:t*(e-n)+n}function w(t,n,e){var r=b(t,n,e);return r<=0?0:r}function x(t,n,e){return 0===t?n:1===t?e:{x:b(t,n.x,e.x),y:b(t,n.y,e.y)}}function k(t,n,e){return 0===t?n:1===t?e:{x:w(t,n.x,e.x),y:w(t,n.y,e.y)}}function A(t,n,e){var r=function(t,n,e){return Math.round(b(t,n,e))}(t,n,e);return r<=0?0:r>=255?255:r}function _(t,n,e){return 0===t?n:1===t?e:{r:A(t,n.r,e.r),g:A(t,n.g,e.g),b:A(t,n.b,e.b),a:b(t,null==n.a?1:n.a,null==e.a?1:e.a)}}function S(t,n,e){if(0===t)return n;if(1===t)return e;var r=n.length;if(r!==e.length)return m(t,n,e);for(var i=[],u=0;u<r;u++)i.push(_(t,n[u],e[u]));return i}function M(t,n,e){var r=n.length;if(r!==e.length)return m(t,n,e);for(var i=new Array(r),u=0;u<r;u++)i[u]=b(t,n[u],e[u]);return i}function O(t,n){for(var e=[],r=0;r<t;r++)e.push(n);return e}function E(t,n){if(--n<=0)return t;var e=(t=Object.assign([],t)).length;do{for(var r=0;r<e;r++)t.push(t[r])}while(--n>0);return t}var B,I=function(){function t(e){n(this,t),this.list=e,this.length=e.length}return r(t,[{key:"setAttribute",value:function(t,n){for(var e=this.list,r=0;r<this.length;r++)e[r].setAttribute(t,n)}},{key:"removeAttribute",value:function(t){for(var n=this.list,e=0;e<this.length;e++)n[e].removeAttribute(t)}},{key:"style",value:function(t,n){for(var e=this.list,r=0;r<this.length;r++)e[r].style[t]=n}}]),t}(),j=/-./g,P=function(t,n){return n.toUpperCase()};function F(t){return"function"==typeof t?t:m}function R(t){return t?"function"==typeof t?t:Array.isArray(t)?function(t){var n=arguments.length>1&&void 0!==arguments[1]?arguments[1]:s;if(!Array.isArray(t))return n;switch(t.length){case 1:return y(t[0])||n;case 2:return y(t[0],t[1])||n;case 4:return h(t[0],t[1],t[2],t[3])||n}return n}(t,null):function(t,n){var e=arguments.length>2&&void 0!==arguments[2]?arguments[2]:s;switch(t){case"linear":return s;case"steps":return y(n.steps||1,n.jump||0)||e;case"bezier":case"cubic-bezier":return h(n.x1||0,n.y1||0,n.x2||0,n.y2||0)||e}return e}(t.type,t.value,null):null}function T(t,n,e){var r=arguments.length>3&&void 0!==arguments[3]&&arguments[3],i=n.length-1;if(t<=n[0].t)return r?[0,0,n[0].v]:n[0].v;if(t>=n[i].t)return r?[i,1,n[i].v]:n[i].v;var u,o=n[0],a=null;for(u=1;u<=i;u++){if(!(t>n[u].t)){a=n[u];break}o=n[u]}return null==a?r?[i,1,n[i].v]:n[i].v:o.t===a.t?r?[u,1,a.v]:a.v:(t=(t-o.t)/(a.t-o.t),o.e&&(t=o.e(t)),r?[u,t,e(t,o.v,a.v)]:e(t,o.v,a.v))}function q(t,n){var e=arguments.length>2&&void 0!==arguments[2]?arguments[2]:null;return t&&t.length?"function"!=typeof n?null:("function"!=typeof e&&(e=null),function(r){var i=T(r,t,n);return null!=i&&e&&(i=e(i)),i}):null}function C(t,n){return t.t-n.t}function V(n,e,r,i,u){var o,a="@"===r[0],l="#"===r[0],f=B[r],s=m;switch(a?(o=r.substr(1),r=o.replace(j,P)):l&&(r=r.substr(1)),t(f)){case"function":if(s=f(i,u,T,R,r,a,e,n),l)return s;break;case"string":s=q(i,F(f));break;case"object":if((s=q(i,F(f.i),f.f))&&"function"==typeof f.u)return f.u(e,s,r,a,n)}return s?function(t,n,e){var r=arguments.length>3&&void 0!==arguments[3]&&arguments[3];if(r)return t instanceof I?function(r){return t.style(n,e(r))}:function(r){return t.style[n]=e(r)};if(Array.isArray(n)){var i=n.length;return function(r){var u=e(r);if(null==u)for(var o=0;o<i;o++)t[o].removeAttribute(n);else for(var a=0;a<i;a++)t[a].setAttribute(n,u)}}return function(r){var i=e(r);null==i?t.removeAttribute(n):t.setAttribute(n,i)}}(e,r,s,a):null}function N(n,e,r,i){if(!i||"object"!==t(i))return null;var u=null,o=null;return Array.isArray(i)?o=function(t){if(!t||!t.length)return null;for(var n=0;n<t.length;n++)t[n].e&&(t[n].e=R(t[n].e));return t.sort(C)}(i):(o=i.keys,u=i.data||null),o?V(n,e,r,o,u):null}function z(t,n,e){if(!e)return null;var r=[];for(var i in e)if(e.hasOwnProperty(i)){var u=N(t,n,i,e[i]);u&&r.push(u)}return r.length?r:null}function D(t,n){if(!n.duration||n.duration<0)return null;var e=function(t,n){if(!n)return null;var e=[];if(Array.isArray(n))for(var r=n.length,i=0;i<r;i++){var u=n[i];if(2===u.length){var o=null;if("string"==typeof u[0])o=t.getElementById(u[0]);else if(Array.isArray(u[0])){o=[];for(var a=0;a<u[0].length;a++)if("string"==typeof u[0][a]){var l=t.getElementById(u[0][a]);l&&o.push(l)}o=o.length?1===o.length?o[0]:new I(o):null}if(o){var f=z(t,o,u[1]);f&&(e=e.concat(f))}}}else for(var s in n)if(n.hasOwnProperty(s)){var c=t.getElementById(s);if(c){var h=z(t,c,n[s]);h&&(e=e.concat(h))}}return e.length?e:null}(t,n.elements);return e?function(t,n){var e=arguments.length>2&&void 0!==arguments[2]?arguments[2]:1/0,r=arguments.length>3&&void 0!==arguments[3]?arguments[3]:1,i=arguments.length>4&&void 0!==arguments[4]&&arguments[4],u=arguments.length>5&&void 0!==arguments[5]?arguments[5]:1,o=t.length,a=r>0?n:0;i&&e%2==0&&(a=n-a);var l=null;return function(f,s){var c=f%n,h=1+(f-c)/n;s*=r,i&&h%2==0&&(s=-s);var v=!1;if(h>e)c=a,v=!0,-1===u&&(c=r>0?0:n);else if(s<0&&(c=n-c),c===l)return!1;l=c;for(var d=0;d<o;d++)t[d](c);return v}}(e,n.duration,n.iterations||1/0,n.direction||1,!!n.alternate,n.fill||1):null}function L(t,n){if(B=n,!t||!t.root||!Array.isArray(t.animations))return null;var e=window.document.getElementById(t.root);if(!e)return null;var r=t.animations.map((function(t){return D(e,t)})).filter((function(t){return!!t}));return r.length?{element:e,animations:r,animationSettings:t.animationSettings,options:t.options||void 0}:null}var U=function(){function t(e,r){var i=arguments.length>2&&void 0!==arguments[2]?arguments[2]:{};n(this,t),this._id=0,this._running=!1,this._rollingBack=!1,this._animations=e,this.duration=r.duration,this.alternate=r.alternate,this.fill=r.fill,this.iterations=r.iterations,this.direction=i.direction||1,this.speed=i.speed||1,this.fps=i.fps||100,this.offset=i.offset||0,this.rollbackStartOffset=0}return r(t,[{key:"_rollback",value:function(){var t=this,n=1/0,e=null;this.rollbackStartOffset=this.offset,this._rollingBack||(this._rollingBack=!0,this._running=!0);this._id=window.requestAnimationFrame((function r(i){if(t._rollingBack){null==e&&(e=i);var u=i-e,o=t.rollbackStartOffset-u,a=Math.round(o*t.speed);if(a>t.duration&&n!=1/0){var l=!!t.alternate&&a/t.duration%2>1,f=a%t.duration;a=(f+=l?t.duration:0)||t.duration}var s=t.fps?1e3/t.fps:0,c=Math.max(0,a);if(c<n-s){t.offset=c,n=c;for(var h=t._animations,v=h.length,d=0;d<v;d++)h[d](c,t.direction)}var y=!1;if(t.iterations>0&&-1===t.fill){var g=t.iterations*t.duration,p=g==a;a=p?0:a,t.offset=p?0:t.offset,y=a>g}a>0&&t.offset>=a&&!y?t._id=window.requestAnimationFrame(r):t.stop()}}))}},{key:"_start",value:function(){var t=this,n=arguments.length>0&&void 0!==arguments[0]?arguments[0]:0,e=-1/0,r=null,i={},u=function u(o){t._running=!0,null==r&&(r=o);var a=Math.round((o-r+n)*t.speed),l=t.fps?1e3/t.fps:0;if(a>e+l&&!t._rollingBack){t.offset=a,e=a;for(var f=t._animations,s=f.length,c=0,h=0;h<s;h++)i[h]?c++:(i[h]=f[h](a,t.direction),i[h]&&c++);if(c===s)return void t._stop()}t._id=window.requestAnimationFrame(u)};this._id=window.requestAnimationFrame(u)}},{key:"_stop",value:function(){this._id&&window.cancelAnimationFrame(this._id),this._running=!1,this._rollingBack=!1}},{key:"play",value:function(){!this._rollingBack&&this._running||(this._rollingBack=!1,this.rollbackStartOffset>this.duration&&(this.offset=this.rollbackStartOffset-(this.rollbackStartOffset-this.offset)%this.duration,this.rollbackStartOffset=0),this._start(this.offset))}},{key:"stop",value:function(){this._stop(),this.offset=0,this.rollbackStartOffset=0;var t=this.direction,n=this._animations;window.requestAnimationFrame((function(){for(var e=0;e<n.length;e++)n[e](0,t)}))}},{key:"reachedToEnd",value:function(){return this.iterations>0&&this.offset>=this.iterations*this.duration}},{key:"restart",value:function(){this._stop(),this.offset=0,this._start()}},{key:"pause",value:function(){this._stop()}},{key:"reverse",value:function(){this.direction=-this.direction}}],[{key:"build",value:function(n,e){return(n=L(n,e))?{el:n.element,options:n.options||{},player:new t(n.animations,n.animationSettings,n.options)}:null}}]),t}();!function(){for(var t=0,n=["ms","moz","webkit","o"],e=0;e<n.length&&!window.requestAnimationFrame;++e)window.requestAnimationFrame=window[n[e]+"RequestAnimationFrame"],window.cancelAnimationFrame=window[n[e]+"CancelAnimationFrame"]||window[n[e]+"CancelRequestAnimationFrame"];window.requestAnimationFrame||(window.requestAnimationFrame=function(n){var e=Date.now(),r=Math.max(0,16-(e-t)),i=window.setTimeout((function(){n(e+r)}),r);return t=e+r,i},window.cancelAnimationFrame=window.clearTimeout)}();var W=function(t,n){var e=!1,r=null;return function(i){e&&clearTimeout(e),e=setTimeout((function(){return function(){for(var i=0,u=window.innerHeight,o=0,a=window.innerWidth,l=t.parentNode;l instanceof Element;){var f=window.getComputedStyle(l);if("visible"!==f.overflowY||"visible"!==f.overflowX){var s=l.getBoundingClientRect();"visible"!==f.overflowY&&(i=Math.max(i,s.top),u=Math.min(u,s.bottom)),"visible"!==f.overflowX&&(o=Math.max(o,s.left),a=Math.min(a,s.right))}if(l===l.parentNode)break;l=l.parentNode}e=!1;var c=t.getBoundingClientRect(),h=Math.min(c.height,Math.max(0,i-c.top)),v=Math.min(c.height,Math.max(0,c.bottom-u)),d=Math.min(c.width,Math.max(0,o-c.left)),y=Math.min(c.width,Math.max(0,c.right-a)),g=(c.height-h-v)/c.height,p=(c.width-d-y)/c.width,m=Math.round(g*p*100);null!==r&&r===m||(r=m,n(m))}()}),100)}},Y=function(){function t(e,r,i){n(this,t),r=Math.max(1,r||1),r=Math.min(r,100),this.el=e,this.onTresholdChange=i&&i.call?i:function(){},this.tresholdPercent=r||1,this.currentVisibility=null,this.visibilityCalculator=W(e,this.onVisibilityUpdate.bind(this)),this.bindScrollWatchers(),this.visibilityCalculator()}return r(t,[{key:"bindScrollWatchers",value:function(){for(var t=this.el.parentNode;t&&(t.addEventListener("scroll",this.visibilityCalculator),t!==t.parentNode&&t!==document);)t=t.parentNode}},{key:"onVisibilityUpdate",value:function(t){var n=this.currentVisibility>=this.tresholdPercent,e=t>=this.tresholdPercent;if(null===this.currentVisibility||n!==e)return this.currentVisibility=t,void this.onTresholdChange(e);this.currentVisibility=t}}]),t}(),G=/\.0+$/g;function H(t){return Number.isInteger(t)?t+"":t.toFixed(6).replace(G,"")}function X(t){var n=arguments.length>1&&void 0!==arguments[1]?arguments[1]:" ";return t&&t.length?t.map(H).join(n):""}function $(t){return H(t.x)+","+H(t.y)}function Q(t){return t?null==t.a||t.a>=1?"rgb("+t.r+","+t.g+","+t.b+")":"rgba("+t.r+","+t.g+","+t.b+","+t.a+")":"transparent"}var Z={f:null,i:k,u:function(t,n){return function(e){var r=n(e);t.setAttribute("rx",H(r.x)),t.setAttribute("ry",H(r.y))}}},J={f:null,i:function(t,n,e){return 0===t?n:1===t?e:{width:w(t,n.width,e.width),height:w(t,n.height,e.height)}},u:function(t,n){return function(e){var r=n(e);t.setAttribute("width",H(r.width)),t.setAttribute("height",H(r.height))}}},K=Math.sin,tt=Math.cos,nt=Math.acos,et=Math.asin,rt=Math.tan,it=Math.atan2,ut=Math.PI/180,ot=180/Math.PI,at=Math.sqrt,lt=function(){function t(){var e=arguments.length>0&&void 0!==arguments[0]?arguments[0]:1,r=arguments.length>1&&void 0!==arguments[1]?arguments[1]:0,i=arguments.length>2&&void 0!==arguments[2]?arguments[2]:0,u=arguments.length>3&&void 0!==arguments[3]?arguments[3]:1,o=arguments.length>4&&void 0!==arguments[4]?arguments[4]:0,a=arguments.length>5&&void 0!==arguments[5]?arguments[5]:0;n(this,t),this.m=[e,r,i,u,o,a],this.i=null,this.w=null,this.s=null}return r(t,[{key:"point",value:function(t,n){var e=this.m;return{x:e[0]*t+e[2]*n+e[4],y:e[1]*t+e[3]*n+e[5]}}},{key:"translateSelf",value:function(){var t=arguments.length>0&&void 0!==arguments[0]?arguments[0]:0,n=arguments.length>1&&void 0!==arguments[1]?arguments[1]:0;if(!t&&!n)return this;var e=this.m;return e[4]+=e[0]*t+e[2]*n,e[5]+=e[1]*t+e[3]*n,this.w=this.s=this.i=null,this}},{key:"rotateSelf",value:function(){var t=arguments.length>0&&void 0!==arguments[0]?arguments[0]:0;if(t%=360){var n=K(t*=ut),e=tt(t),r=this.m,i=r[0],u=r[1];r[0]=i*e+r[2]*n,r[1]=u*e+r[3]*n,r[2]=r[2]*e-i*n,r[3]=r[3]*e-u*n,this.w=this.s=this.i=null}return this}},{key:"scaleSelf",value:function(){var t=arguments.length>0&&void 0!==arguments[0]?arguments[0]:1,n=arguments.length>1&&void 0!==arguments[1]?arguments[1]:1;if(1!==t||1!==n){var e=this.m;e[0]*=t,e[1]*=t,e[2]*=n,e[3]*=n,this.w=this.s=this.i=null}return this}},{key:"skewSelf",value:function(t,n){if(n%=360,(t%=360)||n){var e=this.m,r=e[0],i=e[1],u=e[2],o=e[3];t&&(t=rt(t*ut),e[2]+=r*t,e[3]+=i*t),n&&(n=rt(n*ut),e[0]+=u*n,e[1]+=o*n),this.w=this.s=this.i=null}return this}},{key:"resetSelf",value:function(){var t=arguments.length>0&&void 0!==arguments[0]?arguments[0]:1,n=arguments.length>1&&void 0!==arguments[1]?arguments[1]:0,e=arguments.length>2&&void 0!==arguments[2]?arguments[2]:0,r=arguments.length>3&&void 0!==arguments[3]?arguments[3]:1,i=arguments.length>4&&void 0!==arguments[4]?arguments[4]:0,u=arguments.length>5&&void 0!==arguments[5]?arguments[5]:0,o=this.m;return o[0]=t,o[1]=n,o[2]=e,o[3]=r,o[4]=i,o[5]=u,this.w=this.s=this.i=null,this}},{key:"recomposeSelf",value:function(){var t=arguments.length>0&&void 0!==arguments[0]?arguments[0]:null,n=arguments.length>1&&void 0!==arguments[1]?arguments[1]:null,e=arguments.length>2&&void 0!==arguments[2]?arguments[2]:null,r=arguments.length>3&&void 0!==arguments[3]?arguments[3]:null,i=arguments.length>4&&void 0!==arguments[4]?arguments[4]:null;return this.isIdentity||this.resetSelf(),t&&(t.x||t.y)&&this.translateSelf(t.x,t.y),n&&this.rotateSelf(n),e&&(e.x&&this.skewSelf(e.x,0),e.y&&this.skewSelf(0,e.y)),!r||1===r.x&&1===r.y||this.scaleSelf(r.x,r.y),i&&(i.x||i.y)&&this.translateSelf(i.x,i.y),this}},{key:"decompose",value:function(){var t=arguments.length>0&&void 0!==arguments[0]?arguments[0]:0,n=arguments.length>1&&void 0!==arguments[1]?arguments[1]:0,e=this.m,r=e[0]*e[0]+e[1]*e[1],i=[[e[0],e[1]],[e[2],e[3]]],u=at(r);if(0===u)return{origin:{x:e[4],y:e[5]},translate:{x:t,y:n},scale:{x:0,y:0},skew:{x:0,y:0},rotate:0};i[0][0]/=u,i[0][1]/=u;var o=e[0]*e[3]-e[1]*e[2]<0;o&&(u=-u);var a=i[0][0]*i[1][0]+i[0][1]*i[1][1];i[1][0]-=i[0][0]*a,i[1][1]-=i[0][1]*a;var l=at(i[1][0]*i[1][0]+i[1][1]*i[1][1]);if(0===l)return{origin:{x:e[4],y:e[5]},translate:{x:t,y:n},scale:{x:u,y:0},skew:{x:0,y:0},rotate:0};i[1][0]/=l,i[1][1]/=l,a/=l;var f=0;return i[1][1]<0?(f=nt(i[1][1])*ot,i[0][1]<0&&(f=360-f)):f=et(i[0][1])*ot,o&&(f=-f),a=it(a,at(i[0][0]*i[0][0]+i[0][1]*i[0][1]))*ot,{origin:{x:e[4],y:e[5]},translate:{x:t,y:n},scale:{x:u,y:l},skew:{x:a,y:0},rotate:f}}},{key:"toString",value:function(){return null===this.s&&(this.s="matrix("+this.m.map(st).join(" ")+")"),this.s}},{key:"determinant",get:function(){var t=this.m;return t[0]*t[3]-t[1]*t[2]}},{key:"isIdentity",get:function(){if(null===this.i){var t=this.m;this.i=1===t[0]&&0===t[1]&&0===t[2]&&1===t[3]&&0===t[4]&&0===t[5]}return this.i}}]),t}(),ft=/\.0+$/;function st(t){return Number.isInteger(t)?t:t.toFixed(14).replace(ft,"")}Object.freeze({M:2,L:2,Z:0,H:1,V:1,C:6,Q:4,T:2,S:4,A:7});function ct(t,n,e){return t+(n-t)*e}function ht(t,n,e){var r=arguments.length>3&&void 0!==arguments[3]&&arguments[3],i={x:ct(t.x,n.x,e),y:ct(t.y,n.y,e)};return r&&(i.a=vt(t,n)),i}function vt(t,n){return Math.atan2(n.y-t.y,n.x-t.x)}function dt(t,n,e,r){var i=1-r;return i*i*t+2*i*r*n+r*r*e}function yt(t,n,e,r){return 2*(1-r)*(n-t)+2*r*(e-n)}function gt(t,n,e,r){var i=arguments.length>4&&void 0!==arguments[4]&&arguments[4],u={x:dt(t.x,n.x,e.x,r),y:dt(t.y,n.y,e.y,r)};return i&&(u.a=pt(t,n,e,r)),u}function pt(t,n,e,r){return Math.atan2(yt(t.y,n.y,e.y,r),yt(t.x,n.x,e.x,r))}function mt(t,n,e,r,i){var u=i*i;return i*u*(r-t+3*(n-e))+3*u*(t+e-2*n)+3*i*(n-t)+t}function bt(t,n,e,r,i){var u=1-i;return 3*(u*u*(n-t)+2*u*i*(e-n)+i*i*(r-e))}function wt(t,n,e,r,i){var u=arguments.length>5&&void 0!==arguments[5]&&arguments[5],o={x:mt(t.x,n.x,e.x,r.x,i),y:mt(t.y,n.y,e.y,r.y,i)};return u&&(o.a=xt(t,n,e,r,i)),o}function xt(t,n,e,r,i){return Math.atan2(bt(t.y,n.y,e.y,r.y,i),bt(t.x,n.x,e.x,r.x,i))}function kt(t,n,e){var r=arguments.length>3&&void 0!==arguments[3]&&arguments[3];if(_t(n)){if(St(e))return gt(n,e.start,e,t,r)}else if(_t(e)){if(n.end)return gt(n,n.end,e,t,r)}else{if(n.end)return e.start?wt(n,n.end,e.start,e,t,r):gt(n,n.end,e,t,r);if(e.start)return gt(n,e.start,e,t,r)}return ht(n,e,t,r)}function At(t,n,e){var r=kt(t,n,e,!0);return r.a=function(t){var n=arguments.length>1&&void 0!==arguments[1]&&arguments[1];return n?t+Math.PI:t}(r.a)/p,r}function _t(t){return!t.type||"corner"===t.type}function St(t){return null!=t.start&&!_t(t)}var Mt=new lt;var Ot={f:function(t){return t?t.join(" "):""},i:function(n,e,r){if(0===n)return e;if(1===n)return r;var i=e.length;if(i!==r.length)return m(n,e,r);for(var u,o=new Array(i),a=0;a<i;a++){if((u=t(e[a]))!==t(r[a]))return m(n,e,r);if("number"===u)o[a]=b(n,e[a],r[a]);else{if(e[a]!==r[a])return m(n,e,r);o[a]=e[a]}}return o}},Et={f:null,i:M,u:function(t,n){return function(e){var r=n(e);t.setAttribute("x1",H(r[0])),t.setAttribute("y1",H(r[1])),t.setAttribute("x2",H(r[2])),t.setAttribute("y2",H(r[3]))}}},Bt={f:H,i:b},It={f:H,i:function(t,n,e){var r=b(t,n,e);return r<=0?0:r>=1?1:r}},jt={f:X,i:function(t,n,e){var r,i,u,o=n.length,a=e.length;if(o!==a)if(0===o)n=O(o=a,0);else if(0===a)a=o,e=O(o,0);else{var l=(u=(r=o)*(i=a)/function(t,n){for(var e;n;)e=n,n=t%n,t=e;return t||1}(r,i))<0?-u:u;n=E(n,Math.floor(l/o)),e=E(e,Math.floor(l/a)),o=a=l}for(var f=[],s=0;s<o;s++)f.push(g(w(t,n[s],e[s]),6));return f}};function Pt(t,n,e,r,i,u,o,a){return n=function(t,n,e){for(var r,i,u,o=t.length-1,a={},l=0;l<=o;l++)(r=t[l]).e&&(r.e=n(r.e)),r.v&&"g"===(i=r.v).t&&i.r&&(u=e.getElementById(i.r))&&(a[i.r]=u.querySelectorAll("stop"));return a}(t,r,a),function(r){var i,u=e(r,t,Ft);return u?"c"===u.t?Q(u.v):"g"===u.t?(n[u.r]&&function(t,n){for(var e=0,r=t.length;e<r;e++)t[e].setAttribute("stop-color",Q(n[e]))}(n[u.r],u.v),(i=u.r)?"url(#"+i+")":"none"):"none":"none"}}function Ft(t,n,e){if(0===t)return n;if(1===t)return e;if(n&&e){var r=n.t;if(r===e.t)switch(n.t){case"c":return{t:r,v:_(t,n.v,e.v)};case"g":if(n.r===e.r)return{t:r,v:S(t,n.v,e.v),r:n.r}}}return m(t,n,e)}var Rt={blur:k,brightness:w,contrast:w,"drop-shadow":function(t,n,e){return 0===t?n:1===t?e:{blur:k(t,n.blur,e.blur),offset:x(t,n.offset,e.offset),color:_(t,n.color,e.color)}},grayscale:w,"hue-rotate":b,invert:w,opacity:w,saturate:w,sepia:w};function Tt(t,n,e){if(0===t)return n;if(1===t)return e;var r=n.length;if(r!==e.length)return m(t,n,e);for(var i,u=[],o=0;o<r;o++){if(n[o].type!==e[o].type)return n;if(!(i=Rt[n[o].type]))return m(t,n,e);u.push({type:n.type,value:i(t,n[o].value,e[o].value)})}return u}var qt={blur:function(t){return t?function(n){t.setAttribute("stdDeviation",$(n))}:null},brightness:function(t,n,e){return(t=Vt(e,n))?function(n){n=H(n),t.map((function(t){return t.setAttribute("slope",n)}))}:null},contrast:function(t,n,e){return(t=Vt(e,n))?function(n){var e=H((1-n)/2);n=H(n),t.map((function(t){t.setAttribute("slope",n),t.setAttribute("intercept",e)}))}:null},"drop-shadow":function(t,n,e){var r=e.getElementById(n+"-blur");if(!r)return null;var i=e.getElementById(n+"-offset");if(!i)return null;var u=e.getElementById(n+"-flood");return u?function(t){r.setAttribute("stdDeviation",$(t.blur)),i.setAttribute("dx",H(t.offset.x)),i.setAttribute("dy",H(t.offset.y)),u.setAttribute("flood-color",Q(t.color))}:null},grayscale:function(t){return t?function(n){t.setAttribute("values",X(function(t){return[.2126+.7874*(t=1-t),.7152-.7152*t,.0722-.0722*t,0,0,.2126-.2126*t,.7152+.2848*t,.0722-.0722*t,0,0,.2126-.2126*t,.7152-.7152*t,.0722+.9278*t,0,0,0,0,0,1,0]}(n)))}:null},"hue-rotate":function(t){return t?function(n){return t.setAttribute("values",H(n))}:null},invert:function(t,n,e){return(t=Vt(e,n))?function(n){n=H(n)+" "+H(1-n),t.map((function(t){return t.setAttribute("tableValues",n)}))}:null},opacity:function(t,n,e){return(t=e.getElementById(n+"-A"))?function(n){return t.setAttribute("tableValues","0 "+H(n))}:null},saturate:function(t){return t?function(n){return t.setAttribute("values",H(n))}:null},sepia:function(t){return t?function(n){return t.setAttribute("values",X(function(t){return[.393+.607*(t=1-t),.769-.769*t,.189-.189*t,0,0,.349-.349*t,.686+.314*t,.168-.168*t,0,0,.272-.272*t,.534-.534*t,.131+.869*t,0,0,0,0,0,1,0]}(n)))}:null}};var Ct=["R","G","B"];function Vt(t,n){var e=Ct.map((function(e){return t.getElementById(n+"-"+e)||null}));return-1!==e.indexOf(null)?null:e}var Nt={fill:Pt,"fill-opacity":It,stroke:Pt,"stroke-opacity":It,"stroke-width":Bt,"stroke-dashoffset":{f:H,i:b},"stroke-dasharray":jt,opacity:It,transform:function(n,e,r,i){if(!(n=function(n,e){if(!n||"object"!==t(n))return null;var r=!1;for(var i in n)n.hasOwnProperty(i)&&(n[i]&&n[i].length?(n[i].forEach((function(t){t.e&&(t.e=e(t.e))})),r=!0):delete n[i]);return r?n:null}(n,i)))return null;var u=function(t,i,u){var o=arguments.length>3&&void 0!==arguments[3]?arguments[3]:null;return n[t]?r(i,n[t],u):e&&e[t]?e[t]:o};return e&&e.a&&n.o?function(t){var e=r(t,n.o,At);return Mt.recomposeSelf(e,u("r",t,b,0)+e.a,u("k",t,x),u("s",t,x),u("t",t,x)).toString()}:function(t){return Mt.recomposeSelf(u("o",t,kt,null),u("r",t,b,0),u("k",t,x),u("s",t,x),u("t",t,x)).toString()}},"#filter":function(t,n,e,r,i,u,o,a){if(!n.items||!t||!t.length)return null;var l=function(t,n){var e=(t=t.map((function(t){return t&&qt[t[0]]?(n.getElementById(t[1]),qt[t[0]](n.getElementById(t[1]),t[1],n)):null}))).length;return function(n){for(var r=0;r<e;r++)t[r]&&t[r](n[r].value)}}(n.items,a);return l?(t=function(t,n){return t.map((function(t){return t.e=n(t.e),t}))}(t,r),function(n){l(e(n,t,Tt))}):null},"#line":Et,points:{f:X,i:M},d:Ot,r:Bt,"#size":J,"#radius":Z,_:function(t,n){if(Array.isArray(t))for(var e=0;e<t.length;e++)this[t[e]]=n;else this[t]=n}};return function(t){!function(t,n){if("function"!=typeof n&&null!==n)throw new TypeError("Super expression must either be null or a function");t.prototype=Object.create(n&&n.prototype,{constructor:{value:t,writable:!0,configurable:!0}}),n&&u(t,n)}(o,t);var e=a(o);function o(){return n(this,o),e.apply(this,arguments)}return r(o,null,[{key:"build",value:function(t){var n=l(i(o),"build",this).call(this,t,Nt),e=n.el,r=n.options,u=n.player;return function(t,n,e){if("click"===e.start){return void n.addEventListener("click",(function(){switch(e.click){case"freeze":return!t._running&&t.reachedToEnd()&&(t.offset=0),t._running?t.pause():t.play();case"restart":return t.offset>0?t.restart():t.play();case"reverse":var n=!t._rollingBack&&t._running,r=t.reachedToEnd();return n||r&&1===t.fill?(t.pause(),r&&(t.offset=t.duration-1),t._rollback()):r?t.restart():t.play();case"none":default:return!t._running&&t.offset?t.restart():t.play()}}))}if("hover"===e.start)return n.addEventListener("mouseenter",(function(){return t.reachedToEnd()?t.restart():t.play()})),void n.addEventListener("mouseleave",(function(){switch(e.hover){case"freeze":return t.pause();case"reset":return t.stop();case"reverse":return t.pause(),t._rollback();case"none":default:return}}));if("scroll"===e.start)return void new Y(n,e.scroll||25,(function(n){n?t.reachedToEnd()?t.restart():t.play():t.pause()}));t.play()}(u,e,r),u}}]),o}(U)}));
__SVGATOR_PLAYER__.build({"root":"ewkgv34oeygi1","animations":[{"duration":5000,"direction":1,"iterations":1,"fill":1,"alternate":false,"elements":{"ewkgv34oeygi2":{"transform":{"data":{"t":{"x":-133.72760391235352,"y":-231.4228286743164}},"keys":{"o":[{"t":0,"v":{"x":789.3220099123535,"y":238.41583567431644,"type":"corner"}},{"t":2000,"v":{"x":133.72326087735354,"y":233.17108067431644,"type":"corner"}}],"r":[{"t":1300,"v":0},{"t":2300,"v":-10.51683970204394}]}}},"ewkgv34oeygi5":{"transform":{"data":{"t":{"x":-144.8321762084961,"y":-263.49727630615234}},"keys":{"o":[{"t":0,"v":{"x":800.426582208496,"y":270.4902833061524,"type":"corner"}},{"t":2000,"v":{"x":144.82783317349612,"y":265.2455283061524,"type":"corner"}},{"t":5000,"v":{"x":139.66268731349612,"y":263.9924614361524,"type":"corner"}}],"r":[{"t":3200,"v":16.301628723088754},{"t":5000,"v":0}]}}},"ewkgv34oeygi6":{"transform":{"data":{"t":{"x":-271.9760208129883,"y":-168.8052215576172}},"keys":{"o":[{"t":0,"v":{"x":927.5704268129882,"y":175.79822855761722,"type":"corner"}},{"t":2000,"v":{"x":271.9716777779888,"y":170.55347355761722,"type":"corner"}}],"r":[{"t":1900,"v":0},{"t":3600,"v":1.3}]}}},"ewkgv34oeygi7":{"transform":{"data":{"t":{"x":-272.456298828125,"y":-199.619873046875}},"keys":{"o":[{"t":0,"v":{"x":928.0507048281249,"y":206.61288004687503,"type":"corner"}},{"t":2000,"v":{"x":272.45195579312553,"y":201.36812504687504,"type":"corner"}}]}}},"ewkgv34oeygi8":{"transform":{"data":{"t":{"x":-164.60844196118305,"y":-463.28684136433526}},"keys":{"o":[{"t":0,"v":{"x":840.6811718970408,"y":485.14115221496206,"type":"corner"}},{"t":2000,"v":{"x":171.93362662704033,"y":473.400774674962,"type":"corner"}}],"r":[{"t":600,"v":0},{"t":1700,"v":-15.435798904340908},{"t":3000,"v":9.008853619109448},{"t":4100,"v":-1.4849948242132216},{"t":5000,"v":-15.435798904340908}]}}},"ewkgv34oeygi18":{"transform":{"data":{"t":{"x":-110.85755193279164,"y":-469.55195849380436}},"keys":{"o":[{"t":0,"v":{"x":808.1187637221678,"y":478.7319049977345,"type":"corner"}},{"t":2000,"v":{"x":133.72326756500001,"y":484.19008931999997,"type":"corner"}}],"r":[{"t":400,"v":0},{"t":1600,"v":-8.314091665079085},{"t":3400,"v":10.824175548674772},{"t":4900,"v":-1.8430935444787757}]}}},"ewkgv34oeygi23":{"transform":{"data":{"t":{"x":-221.25761951500073,"y":-465.80942289500075}},"keys":{"o":[{"t":0,"v":{"x":859.6553370999998,"y":491.70187394999925,"type":"corner"}},{"t":2000,"v":{"x":230.07565697,"y":482.377518345,"type":"corner"}}],"r":[{"t":1400,"v":0},{"t":4000,"v":-21.465566032267603},{"t":4900,"v":0.9399434134587785}]}}},"ewkgv34oeygi24":{"transform":{"data":{"t":{"x":-478.37242126464844,"y":-351.1202392578125}},"keys":{"o":[{"t":0,"v":{"x":1133.9668272646481,"y":358.11324625781253,"type":"corner"}},{"t":2000,"v":{"x":478.3680782296485,"y":352.86849125781254,"type":"corner"}}],"r":[{"t":1700,"v":0},{"t":3400,"v":15},{"t":5000,"v":0}]}}},"ewkgv34oeygi30":{"transform":{"data":{"t":{"x":-479.95174238000004,"y":-401.02}},"keys":{"o":[{"t":0,"v":{"x":1135.54614838,"y":408.013007,"type":"corner"}},{"t":2000,"v":{"x":479.94739934500035,"y":402.768252,"type":"corner"}}],"r":[{"t":900,"v":0},{"t":3000,"v":-13.838090735937982},{"t":4900,"v":24.261414594572905}]}}}}}],"options":{"start":"scroll","hover":"freeze","click":"freeze","scroll":31,"exportedIds":"unique","title":"animals"},"animationSettings":{"duration":5000,"direction":1,"iterations":1,"fill":1,"alternate":false}})]]></script></svg>